<svg width="32" height="32" viewBox="0 0 32 32" fill="none" xmlns="http://www.w3.org/2000/svg">
<path d="M5.03683 15.923C3.7728 13.7189 3.16247 11.9191 2.79446 10.0948C2.25016 7.39661 3.49575 4.76092 5.55918 3.07913C6.43127 2.36835 7.43098 2.6112 7.94667 3.53637L9.11091 5.62505C10.0337 7.2806 10.4951 8.10836 10.4036 8.98596C10.3121 9.86356 9.68983 10.5783 8.4453 12.0079L5.03683 15.923ZM5.03683 15.923C7.59535 20.3842 11.6105 24.4016 16.0768 26.963M16.0768 26.963C18.2809 28.227 20.0807 28.8374 21.9051 29.2054C24.6032 29.7497 27.2389 28.5041 28.9207 26.4406C29.6315 25.5686 29.3887 24.5689 28.4635 24.0532L26.3748 22.8889C24.7192 21.9661 23.8915 21.5048 23.0139 21.5962C22.1363 21.6877 21.4215 22.31 19.992 23.5545L16.0768 26.963Z" stroke="white" stroke-width="2.5" stroke-linejoin="round"/>
<path d="M18.6667 4V7.73333M25.2669 6.73437L22.6271 9.37424M28 13.3333H24.2667" stroke="white" stroke-width="2.5" stroke-linecap="round"/>
</svg>
