<svg xmlns="http://www.w3.org/2000/svg" width="20" height="21" viewBox="0 0 20 21" fill="none">
  <path d="M19.6024 10.5129C19.6024 9.83755 19.5371 9.1404 19.4281 8.48682H9.99475V12.343H15.3977C15.1798 13.5848 14.4609 14.6741 13.3934 15.3712L16.6177 17.8766C18.5131 16.112 19.6024 13.5412 19.6024 10.5129Z" fill="#4280EF"/>
  <path d="M9.99444 20.2733C12.6959 20.2733 14.9617 19.38 16.6174 17.855L13.3931 15.3714C12.4998 15.9814 11.3452 16.33 9.99444 16.33C7.38011 16.33 5.17971 14.5653 4.37362 12.2124L1.06213 14.7614C2.76145 18.1382 6.20366 20.2733 9.99444 20.2733Z" fill="#34A353"/>
  <path d="M4.37356 12.1905C3.95962 10.9487 3.95962 9.59797 4.37356 8.35616L1.06207 5.7854C-0.354024 8.61759 -0.354024 11.9509 1.06207 14.7613L4.37356 12.1905Z" fill="#F6B704"/>
  <path d="M9.99444 4.23864C11.4105 4.21686 12.8048 4.76151 13.8288 5.74189L16.6828 2.86612C14.8745 1.1668 12.4781 0.251787 9.99444 0.273574C6.20366 0.273574 2.76145 2.40861 1.06213 5.78546L4.37362 8.35622C5.17971 5.98153 7.38011 4.23864 9.99444 4.23864Z" fill="#E54335"/>
</svg>