<svg xmlns="http://www.w3.org/2000/svg" width="44" height="45" viewBox="0 0 44 45" fill="none">
  <path d="M15.3919 5.56579C18.0959 3.8904 20.456 4.56556 21.8737 5.64101C22.455 6.08197 22.7456 6.30246 22.9167 6.30246C23.0877 6.30246 23.3783 6.08197 23.9596 5.64101C25.3774 4.56556 27.7374 3.8904 30.4414 5.56579C33.9902 7.76454 34.7932 15.0183 26.6077 21.1382C25.0486 22.3038 24.2691 22.8865 22.9167 22.8865C21.5642 22.8865 20.7847 22.3038 19.2256 21.1382C11.0402 15.0183 11.8432 7.76454 15.3919 5.56579Z" stroke="white" stroke-width="1.5" stroke-linecap="round"/>
  <path d="M7.33334 26.5538H11.7238C12.2631 26.5538 12.795 26.6754 13.2773 26.9088L17.0209 28.7201C17.5033 28.9535 18.0351 29.0749 18.5744 29.0749H20.4859C22.3346 29.0749 23.8333 30.5252 23.8333 32.3142C23.8333 32.3864 23.7838 32.45 23.712 32.4698L19.0537 33.7579C18.218 33.9889 17.3232 33.9084 16.5458 33.5322L12.5439 31.596" stroke="white" stroke-width="1.5" stroke-linecap="round" stroke-linejoin="round"/>
  <path d="M23.8333 31.1373L32.2535 28.5502C33.7462 28.0851 35.3597 28.6366 36.2947 29.9315C36.9708 30.8676 36.6955 32.2083 35.7106 32.7766L21.932 40.7265C21.0557 41.2321 20.0217 41.3555 19.0579 41.0695L7.33334 37.5904" stroke="white" stroke-width="1.5" stroke-linecap="round" stroke-linejoin="round"/>
</svg>