<svg xmlns="http://www.w3.org/2000/svg" width="44" height="45" viewBox="0 0 44 45" fill="none">
  <path d="M22.1578 33.1011L33.5429 21.9397C34.0052 21.478 34.3719 20.9297 34.6221 20.3261C34.8723 19.7226 35.001 19.0756 35.001 18.4223C35.001 17.7689 34.8723 17.122 34.6221 16.5184C34.3719 15.9149 34.0052 15.3666 33.5429 14.9048L30.4108 11.7727C29.949 11.3104 29.4007 10.9437 28.7972 10.6935C28.1936 10.4433 27.5467 10.3146 26.8933 10.3146C26.24 10.3146 25.593 10.4433 24.9895 10.6935C24.3859 10.9437 23.8376 11.3104 23.3759 11.7727L12.2145 23.1578" stroke="white" stroke-width="1.5" stroke-linecap="round" stroke-linejoin="round"/>
  <path d="M13.4575 39.3157L5.99998 31.8582" stroke="white" stroke-width="1.5" stroke-linecap="round" stroke-linejoin="round"/>
  <path d="M17.1862 28.1294L9.72874 35.5869" stroke="white" stroke-width="1.5" stroke-linecap="round" stroke-linejoin="round"/>
  <path d="M31.9769 13.3389L38.3157 7.00001" stroke="white" stroke-width="1.5" stroke-linecap="round" stroke-linejoin="round"/>
  <path d="M25.8866 36.8298L8.48581 19.4291" stroke="white" stroke-width="1.5" stroke-linecap="round" stroke-linejoin="round"/>
</svg>