<svg xmlns="http://www.w3.org/2000/svg" width="32" height="32" viewBox="0 0 32 32" fill="none">
  <path d="M9.33331 24C6.89474 24.5489 5.33331 25.3924 5.33331 26.3383C5.33331 27.9924 10.1089 29.3333 16 29.3333C21.891 29.3333 26.6666 27.9924 26.6666 26.3383C26.6666 25.3924 25.1052 24.5489 22.6666 24" stroke="white" stroke-width="2.625" stroke-linecap="round"/>
  <path fill-rule="evenodd" clip-rule="evenodd" d="M16.0003 23.9998C16.6258 23.9998 17.2268 23.7577 17.6766 23.3246C17.9906 23.0221 18.3126 22.7167 18.6384 22.4077C22.595 18.655 27.1057 14.3767 24.6222 8.40481C23.167 4.90561 19.6739 2.6665 16.0003 2.6665C12.3266 2.6665 8.83349 4.9056 7.3783 8.40481C4.90486 14.3525 9.36585 18.5991 13.3011 22.3453C13.6478 22.6754 13.9904 23.0015 14.3239 23.3246C14.7736 23.7577 15.3747 23.9998 16.0003 23.9998ZM16 15.3332C17.841 15.3332 19.3334 13.8408 19.3334 11.9998C19.3334 10.1589 17.841 8.6665 16 8.6665C14.1591 8.6665 12.6667 10.1589 12.6667 11.9998C12.6667 13.8408 14.1591 15.3332 16 15.3332Z" fill="white"/>
</svg>