<svg width="24" height="25" viewBox="0 0 24 25" fill="none" xmlns="http://www.w3.org/2000/svg">
<path d="M22 10.2744V9.4919C22 7.55228 22 6.58248 21.4142 5.97991C20.8284 5.37735 19.8856 5.37735 18 5.37735H15.9214C15.004 5.37735 14.9964 5.37557 14.1715 4.96275L10.8399 3.29555C9.44884 2.59945 8.75332 2.2514 8.01238 2.27559C7.27143 2.29978 6.59877 2.69249 5.25345 3.47792L4.02558 4.19478C3.03739 4.7717 2.54329 5.06017 2.27164 5.54005C2 6.01994 2 6.60434 2 7.77314V15.9901C2 17.5258 2 18.2937 2.34226 18.7211C2.57001 19.0054 2.88916 19.1966 3.242 19.26C3.77226 19.3552 4.42148 18.9762 5.71987 18.2181C6.60156 17.7034 7.45011 17.1688 8.50487 17.3138C9.38869 17.4352 10.21 17.9929 11 18.3882" stroke="white" stroke-width="1.5" stroke-linecap="round" stroke-linejoin="round"/>
<path d="M8 2.27441V17.2744" stroke="white" stroke-width="1.5" stroke-linejoin="round"/>
<path d="M15 5.27441V9.77441" stroke="white" stroke-width="1.5" stroke-linecap="round" stroke-linejoin="round"/>
<path d="M18.3083 21.9579C18.0915 22.1609 17.8017 22.2744 17.5001 22.2744C17.1985 22.2744 16.9087 22.1609 16.6919 21.9579C14.7063 20.0874 12.0455 17.9979 13.3431 14.9642C14.0447 13.324 15.7289 12.2744 17.5001 12.2744C19.2713 12.2744 20.9555 13.324 21.6571 14.9642C22.9531 17.994 20.2988 20.0938 18.3083 21.9579Z" stroke="white" stroke-width="1.5"/>
<path d="M17.5 16.7744H17.509" stroke="white" stroke-width="2" stroke-linecap="round" stroke-linejoin="round"/>
</svg>
