<svg width="14" height="13" viewBox="0 0 14 13" fill="none" xmlns="http://www.w3.org/2000/svg">
<path d="M6.30476 1.22814C6.55583 0.455426 7.64901 0.455427 7.90008 1.22814L8.82248 4.06701C8.93477 4.41258 9.25679 4.64655 9.62014 4.64655L12.6051 4.64655C13.4176 4.64655 13.7554 5.68623 13.0981 6.16379L10.6832 7.91831C10.3892 8.13188 10.2662 8.51045 10.3785 8.85602L11.3009 11.6949C11.552 12.4676 10.6676 13.1102 10.0103 12.6326L7.5954 10.8781C7.30144 10.6645 6.90339 10.6645 6.60944 10.8781L4.19454 12.6326C3.53723 13.1102 2.65283 12.4676 2.9039 11.6949L3.82631 8.85602C3.93859 8.51045 3.81559 8.13188 3.52163 7.91831L1.10674 6.16379C0.449429 5.68623 0.787241 4.64655 1.59972 4.64655L4.58469 4.64655C4.94804 4.64655 5.27007 4.41258 5.38235 4.06701L6.30476 1.22814Z" fill="#F6B704"/>
</svg>
