<svg width="246" height="50" viewBox="0 0 246 50" fill="none" xmlns="http://www.w3.org/2000/svg">
<g id="ExpertMRI 1" clip-path="url(#clip0_3_843)">
<g id="Clip path group">
<mask id="mask0_3_843" style="mask-type:luminance" maskUnits="userSpaceOnUse" x="0" y="0" width="246" height="50">
<g id="clip0_1107_2314">
<path id="Vector" d="M245.904 0.0253906H0V49.9746H245.904V0.0253906Z" fill="white"/>
</g>
</mask>
<g mask="url(#mask0_3_843)">
<g id="Group">
<path id="person" fill-rule="evenodd" clip-rule="evenodd" d="M30.8942 25.5024C30.8243 25.2295 30.5915 24.8515 30.4908 24.7293C30.4102 24.6501 30.3286 24.5156 30.2826 24.3451L30.2918 24.133L30.3717 22.5093L30.3756 22.4855C30.4086 22.2457 30.5738 21.0192 30.5738 20.3768C30.5738 19.7421 30.1704 18.8991 30.085 18.7285C30.2311 17.4998 30.1458 15.5294 30.1366 15.3703C30.1534 15.2635 30.2672 14.4313 30.2672 14.1055C30.2672 13.7835 30.2672 13.2441 29.7923 12.5141C29.2913 11.7425 28.5643 11.6772 27.8073 11.6772C27.8051 11.6772 27.8028 11.6772 27.8012 11.6772C27.6783 11.6595 26.7439 11.1969 26.0837 10.8588L26.1091 10.015C26.2552 9.81524 26.2644 9.73686 26.2674 9.71073C26.2751 9.64848 26.3197 9.32189 26.3658 8.97609L26.3665 8.96918C26.5732 8.87081 26.7277 8.60186 26.7608 8.45969C26.7669 8.43203 26.7754 8.40206 26.7822 8.37056C26.8514 8.09622 26.9291 7.78345 26.7447 7.6874C26.7284 7.67895 26.7116 7.67203 26.6947 7.6682C26.7469 7.41307 26.7739 7.06342 26.6716 6.42792C26.5532 5.69174 25.6204 5.43201 24.8596 5.43201H24.8373C24.062 5.43201 23.126 5.69328 23.0453 6.43329C22.9854 6.98582 22.9761 7.39309 23.0161 7.66896C23.0007 7.67357 22.9839 7.67972 22.9692 7.6874C22.7841 7.78345 22.8616 8.09622 22.9308 8.37056C22.9378 8.40206 22.9461 8.43203 22.9523 8.45969C22.9885 8.61953 23.1467 8.86698 23.3365 8.96457L23.3381 8.9807C23.3857 9.3242 23.4295 9.64848 23.4364 9.71073C23.4418 9.75684 23.4634 9.81063 23.5041 9.88056L23.5502 10.8603C22.8901 11.1984 21.9564 11.6603 21.8396 11.678C21.0742 11.678 20.3458 11.7417 19.8424 12.5148C19.3668 13.2456 19.3668 13.7843 19.3668 14.1062C19.3668 14.4313 19.4813 15.2643 19.4966 15.3712C19.4889 15.5301 19.4036 17.5005 19.5488 18.7293C19.4628 18.8991 19.0601 19.7421 19.0601 20.3776C19.0601 21.0201 19.226 22.2472 19.2584 22.4862L19.2615 22.5101L19.349 24.2683C19.3083 24.4757 19.2146 24.6386 19.1217 24.7308C19.0194 24.853 18.7881 25.2312 18.7189 25.5039C18.6198 25.9358 18.201 26.6089 18.2241 26.7165C18.2986 26.8571 18.4246 26.9086 18.5384 26.841C18.6629 26.7565 18.9526 26.4514 18.9909 26.3001C19.0462 26.4868 19.286 27.8393 19.379 28.0037C19.4121 28.1566 19.5128 28.2942 19.628 28.2972C19.734 28.2596 19.7986 28.2096 19.7986 28.2096C19.8309 28.3595 19.8877 28.5462 20.0944 28.5578C20.1951 28.5415 20.2366 28.4694 20.2289 28.371C20.3081 28.3971 20.5047 28.3418 20.5593 28.2004C20.6046 28.0774 20.6355 27.9207 20.6485 27.8415C20.647 27.82 20.6538 27.8123 20.6485 27.8415C20.6516 27.8722 20.6846 27.9107 20.7607 27.9146C20.8375 27.9038 20.8967 27.8576 20.9228 27.5718C20.9406 27.3897 20.9367 26.8495 20.9306 26.8218C20.9243 26.7942 20.896 26.4015 20.8852 26.2178C20.9389 26.0065 20.909 25.3418 20.8821 25.2203C20.8521 25.0836 20.8014 24.9798 20.6277 24.7039C20.6439 24.4681 20.6492 24.2729 20.6523 24.1976C20.6577 24.1277 20.6631 24.0531 20.6655 23.9939C20.6816 23.6874 20.7045 23.3699 20.7077 23.3061C20.7369 23.2086 20.7953 23.0634 20.8644 22.895C21.0727 22.3878 21.3893 21.6186 21.3755 20.8932C21.3662 20.3545 21.3516 19.9042 21.3431 19.6852C21.3378 19.5285 21.3317 19.4025 21.3285 19.3163C21.3248 19.2672 21.3239 19.2264 21.3185 19.1942L21.3217 19.1719C21.3739 18.6932 21.4738 17.7649 21.5146 17.104C21.656 17.5074 21.8719 18.0407 22.1593 18.5256C22.1586 19.218 22.1377 19.6568 22.1216 20.0095C22.1101 20.2285 22.1024 20.4052 22.1009 20.5859C22.0056 20.7311 21.6099 21.4027 21.6053 22.3987C21.4477 22.975 21.2871 23.6158 21.2786 24.0132V24.0185V24.0224C21.2825 24.0646 21.5722 28.2404 21.8865 29.3546C21.9433 29.5536 22.0095 29.7719 22.0786 30.0017C22.3545 30.9191 22.698 32.0611 22.671 32.745C22.6611 33.0262 22.5796 33.2676 22.4866 33.5465C22.2999 34.099 22.0894 34.7276 22.3414 35.9164C22.5489 36.8916 22.6895 37.3211 22.8248 37.7385C22.9361 38.085 23.043 38.4115 23.1851 39.0294C23.2475 39.2991 23.2982 39.5196 23.3411 39.7041C23.5072 40.4165 23.5433 40.5693 23.5472 40.8244C23.4917 40.8622 23.411 40.9282 23.3581 41.0259C23.305 41.1226 23.3028 41.2717 23.3573 41.3785C23.2505 41.4777 23.1298 41.5753 23.0591 41.6221C22.9639 41.6898 22.8233 41.838 22.7863 41.8796C22.7256 41.9264 22.701 41.9995 22.6895 42.0541C22.6296 42.0932 22.5935 42.1501 22.5919 42.2193C22.5896 42.3153 22.6549 42.4083 22.7471 42.4459C22.8033 42.4666 22.8632 42.4705 22.9086 42.462C22.9439 42.482 22.9946 42.4974 23.0668 42.5036C23.1483 42.512 23.2059 42.502 23.2505 42.4874C23.2828 42.5059 23.3281 42.5166 23.3873 42.5166C23.4787 42.5166 23.544 42.5012 23.5909 42.4783C23.6324 42.5112 23.6885 42.5366 23.7661 42.5366H23.7869C23.9529 42.5366 24.0611 42.4905 24.1266 42.4413C24.2026 42.4936 24.3301 42.542 24.5515 42.5212C24.6668 42.5105 24.7551 42.4828 24.8159 42.4413C24.8773 42.4836 24.9648 42.5112 25.0817 42.5212C25.3022 42.5412 25.4297 42.4936 25.5067 42.4413C25.5727 42.4905 25.6787 42.5366 25.8456 42.5366H25.8648C25.9416 42.5366 26 42.5112 26.0407 42.4783C26.0876 42.5012 26.1536 42.5166 26.2413 42.5166H26.2505C26.3073 42.5166 26.3504 42.5059 26.3826 42.4874C26.4272 42.5027 26.4849 42.5112 26.5641 42.5036C26.6355 42.4974 26.687 42.4828 26.7216 42.462C26.7669 42.4713 26.8299 42.4674 26.8853 42.4459C26.9767 42.4083 27.0427 42.3153 27.0405 42.2193C27.0381 42.1501 27.002 42.0932 26.9413 42.0541C26.9313 42.0003 26.906 41.9264 26.8453 41.8796C26.8092 41.838 26.6685 41.6898 26.5732 41.6221C26.5033 41.5746 26.3826 41.4777 26.2759 41.3785C26.3305 41.2717 26.3288 41.1226 26.2751 41.0259C26.2213 40.9282 26.1414 40.8622 26.0853 40.8244C26.0899 40.5693 26.1253 40.4165 26.292 39.7041C26.3351 39.5196 26.3865 39.2991 26.4496 39.0294C26.5902 38.4115 26.697 38.085 26.81 37.7385C26.946 37.3211 27.0851 36.8908 27.291 35.9164C27.5438 34.7276 27.3333 34.099 27.1472 33.5465C27.0543 33.2676 26.9728 33.0262 26.9621 32.745C26.936 32.0603 27.2787 30.9191 27.5553 30.0017C27.6245 29.7719 27.6898 29.5536 27.7459 29.3546C28.0626 28.2404 28.3506 24.0639 28.353 24.0224V24.0185V24.0132C28.3445 23.6158 28.1847 22.975 28.0271 22.3987C28.0234 21.4034 27.6268 20.7319 27.5315 20.5859C27.5307 20.4052 27.5222 20.2285 27.5115 20.0095C27.4946 19.6568 27.4732 19.218 27.4723 18.5256C27.7612 18.0407 27.9764 17.5074 28.117 17.104C28.1586 17.7649 28.2577 18.6932 28.3107 19.1719L28.3131 19.1942C28.3077 19.2264 28.3068 19.2672 28.3038 19.3163C28.3007 19.4025 28.2953 19.5285 28.2885 19.6852C28.2823 19.9042 28.2661 20.3545 28.2569 20.8932C28.2424 21.6186 28.5589 22.3878 28.7672 22.895C28.8355 23.0625 28.8955 23.2086 28.9247 23.3061C28.9278 23.3814 28.9462 23.7841 28.9547 24.1214C28.9578 24.2198 28.96 24.3896 28.96 24.3896L28.9639 24.392C28.9678 24.4803 28.9724 24.5872 28.9808 24.7039C28.8063 24.9798 28.7549 25.0836 28.7273 25.2203C28.7003 25.3418 28.6696 26.0065 28.7234 26.2178C28.7119 26.4015 28.6849 26.7942 28.6788 26.8218C28.6727 26.8486 28.6688 27.389 28.6857 27.5718C28.7127 27.8576 28.7726 27.9046 28.8486 27.9146C28.9247 27.9107 28.9578 27.8722 28.96 27.8415C28.9547 27.8123 28.9617 27.82 28.96 27.8415C28.9746 27.9207 29.0046 28.0774 29.0492 28.2004C29.1045 28.3418 29.3028 28.3971 29.3796 28.371C29.372 28.4694 29.4127 28.5424 29.5141 28.5578C29.7231 28.5462 29.7792 28.3595 29.8108 28.2096C29.8108 28.2096 29.8761 28.2596 29.9814 28.2972C30.0959 28.2942 30.1973 28.1566 30.2295 28.0037C30.3225 27.8393 30.5615 26.4868 30.6183 26.3001C30.6568 26.4514 30.9473 26.7565 31.0718 26.841C31.1848 26.9086 31.3108 26.8571 31.3853 26.7165C31.4114 26.6081 30.9933 25.9342 30.8942 25.5024ZM24.7567 29.5222C24.7567 29.5168 24.7813 29.214 24.8127 28.8628L24.8788 29.5198C24.9027 29.9786 24.8642 30.5526 24.8174 31.0652C24.772 30.5526 24.7336 29.9786 24.7567 29.5222ZM24.9372 41.666C24.948 41.7098 24.8865 41.8289 24.825 41.9088C24.8227 41.9103 24.8204 41.9126 24.8166 41.9157C24.8142 41.9126 24.812 41.9103 24.8104 41.9088C24.7482 41.8289 24.6875 41.709 24.6982 41.666C24.8259 41.1604 24.7197 40.876 24.7167 40.8683C24.6368 40.6263 24.5007 38.4977 24.6137 37.9351L24.6398 37.806C24.7143 37.4318 24.7835 37.0937 24.8166 36.6672C24.852 37.0945 24.9195 37.4318 24.9957 37.806L25.0202 37.9351C25.1332 38.4977 24.9979 40.6263 24.9195 40.8653C24.9158 40.8753 24.8096 41.1596 24.9372 41.666Z" fill="#388DCA"/>
<path id="right-circle" d="M49.2342 49.4546C41.7995 47.329 36.1699 37.366 36.1699 25.3844C36.1699 13.4027 41.7995 3.44049 49.2342 1.31343V1.23889C39.5357 3.20229 32.147 13.2597 32.147 25.3844C32.147 37.5074 39.5348 47.5648 49.2335 49.5282L49.2342 49.4546Z" fill="#231F20"/>
<path id="left-circle" d="M0.377502 1.31266C7.81225 3.44049 13.4419 13.4027 13.4419 25.3836C13.4419 37.366 7.81149 47.329 0.377502 49.4546V49.5282C10.0761 47.5648 17.464 37.5074 17.464 25.3836C17.464 13.2597 10.0761 3.20229 0.377502 1.23889V1.31266Z" fill="#231F20"/>
<g id="name">
<path id="e" d="M63.948 13.1458H50.4793V19.3364H62.4179V23.0781H50.4793V29.4716H64.1186V33.2139H46.2952V9.40503H63.948V13.1458Z" fill="#388DCA"/>
<path id="x" d="M86.0135 33.2139L79.2896 24.0778L72.5273 33.2139H67.3748L76.6938 20.941L67.7406 9.08374H73.0398L79.3987 17.7357L85.7937 9.08374H90.947L82.0299 20.8725L91.312 33.2146L86.0135 33.2139Z" fill="#388DCA"/>
<path id="p" d="M104.633 25.5601H99.9058V33.2139H95.7225V9.40503H105.11C110.654 9.40503 114.157 12.5342 114.157 17.3976C114.157 22.7707 109.871 25.5601 104.633 25.5601ZM104.769 13.215H99.9051V21.7855H104.769C107.932 21.7855 109.905 20.0512 109.905 17.4999C109.906 14.6766 107.899 13.215 104.769 13.215Z" fill="#388DCA"/>
<path id="Vector_2" d="M136.096 13.1458H122.626V19.3364H134.565V23.0781H122.626V29.4716H136.266V33.2139H118.444V9.40503H136.096V13.1458Z" fill="#388DCA"/>
<path id="Vector_3" d="M156.501 33.2139L150.652 24.9139H145.414V33.2139H141.231V9.40503H151.843C157.319 9.40503 160.688 12.2959 160.688 16.9558C160.688 20.9018 158.341 23.2817 155.007 24.2007L161.435 33.2147L156.501 33.2139ZM151.503 13.215H145.414V21.2069H151.536C154.53 21.2069 156.435 19.6424 156.435 17.1932C156.435 14.5751 154.598 13.215 151.503 13.215Z" fill="#388DCA"/>
<path id="Vector_4" d="M175.788 33.2139H171.572V13.2818H164.02V9.40503H183.339V13.2818H175.789V33.2139H175.788Z" fill="#388DCA"/>
<path id="Vector_5" d="M199.462 27.3625H199.326L191.877 16.2068V33.2134H187.763V9.40454H192.218L199.463 20.6623L206.707 9.40454H211.163V33.2142H206.98V16.1393L199.462 27.3625Z" fill="#231F20"/>
<path id="Vector_6" d="M231.704 33.2134L225.854 24.9134H220.617V33.2134H216.435V9.40454H227.045C232.522 9.40454 235.889 12.2955 235.889 16.9553C235.889 20.9013 233.542 23.2812 230.208 24.2002L236.638 33.2142L231.704 33.2134ZM226.704 13.2145H220.617V21.2064H226.739C229.734 21.2064 231.637 19.6418 231.637 17.1928C231.637 14.5746 229.801 13.2145 226.704 13.2145Z" fill="#231F20"/>
<path id="Vector_7" d="M245.446 9.40454V33.2142H241.263V9.40454H245.446Z" fill="#231F20"/>
</g>
<g id="details">
<path id="Vector_8" d="M62.0796 37.512H67.1968L67.0799 38.0784H64.8538L63.4767 44.5433H62.8128L64.1899 38.0784H61.9629L62.0796 37.512Z" fill="black"/>
<path id="Vector_9" d="M68.2619 42.1502C68.2036 42.4245 68.1836 42.6828 68.2036 42.9279C68.2228 43.1723 68.285 43.3843 68.3888 43.5619C68.4926 43.7417 68.6415 43.8845 68.833 43.9929C69.025 44.0997 69.2618 44.1535 69.5415 44.1535C69.9257 44.1535 70.2754 44.0529 70.5912 43.8508C70.907 43.6486 71.1499 43.3613 71.3188 42.9917H71.9736C71.8491 43.2322 71.7077 43.4558 71.5486 43.6601C71.3896 43.8645 71.2052 44.0429 70.9969 44.1973C70.7878 44.3494 70.5535 44.4693 70.293 44.5531C70.0332 44.6376 69.7428 44.6807 69.4239 44.6807C69.0204 44.6807 68.687 44.6123 68.4226 44.4756C68.159 44.3379 67.9577 44.1513 67.8179 43.913C67.6771 43.6756 67.5981 43.3966 67.5781 43.0731C67.5589 42.7511 67.5881 42.4045 67.6664 42.0342C67.7441 41.6622 67.8716 41.3134 68.0468 40.9883C68.2228 40.6632 68.4356 40.3781 68.687 40.1353C68.9375 39.891 69.2202 39.698 69.5361 39.5582C69.8512 39.4176 70.1916 39.3484 70.5566 39.3484C71.2535 39.3484 71.75 39.5889 72.0458 40.0677C72.3424 40.5457 72.3893 41.2403 72.1872 42.1509L68.2619 42.1502ZM71.6701 41.663C71.7223 41.4163 71.7369 41.1826 71.7138 40.9652C71.6915 40.7477 71.6309 40.5588 71.5332 40.3997C71.4357 40.2391 71.2951 40.1122 71.1136 40.0185C70.9308 39.9239 70.7103 39.8771 70.4497 39.8771C70.1892 39.8771 69.9502 39.9256 69.7313 40.0223C69.513 40.1215 69.3163 40.2513 69.141 40.4134C68.9651 40.5756 68.8122 40.7647 68.6824 40.9791C68.5525 41.1935 68.448 41.4224 68.3696 41.663H71.6701Z" fill="black"/>
<path id="Vector_10" d="M77.9684 41.0785C77.9491 40.6996 77.8354 40.4053 77.6263 40.1948C77.418 39.9835 77.1183 39.8775 76.728 39.8775C76.4283 39.8775 76.1578 39.9389 75.9173 40.0626C75.6768 40.1864 75.4647 40.3507 75.2833 40.556C75.1004 40.7612 74.9505 40.9909 74.8338 41.2483C74.717 41.5058 74.6286 41.7655 74.5702 42.026C74.5119 42.2934 74.4873 42.5524 74.4965 42.8067C74.5065 43.0611 74.5587 43.2886 74.6532 43.4907C74.7478 43.6928 74.8891 43.8542 75.0774 43.974C75.2665 44.0939 75.5139 44.1546 75.8197 44.1546C76.2562 44.1546 76.632 44.034 76.9478 43.7942C77.2636 43.553 77.4996 43.2202 77.6556 42.7967H78.2803C78.1697 43.0757 78.0337 43.3316 77.87 43.563C77.7077 43.7957 77.5188 43.994 77.3035 44.1585C77.0892 44.3252 76.8479 44.4528 76.5813 44.5442C76.3145 44.6356 76.0211 44.6818 75.7022 44.6818C75.2987 44.6818 74.9652 44.6134 74.7008 44.4765C74.4373 44.339 74.2359 44.1524 74.096 43.9141C73.9554 43.6766 73.8763 43.3954 73.8563 43.0696C73.8363 42.7438 73.8663 42.3956 73.9447 42.026C74.0161 41.6725 74.1368 41.3367 74.3058 41.0155C74.4749 40.6927 74.6832 40.4077 74.9306 40.1602C75.1781 39.912 75.4632 39.7169 75.7852 39.5693C76.1079 39.4225 76.4575 39.3495 76.8356 39.3495C77.4219 39.3495 77.8653 39.4893 78.1689 39.7691C78.4716 40.0488 78.6031 40.4861 78.5646 41.0792L77.9684 41.0785Z" fill="black"/>
<path id="Vector_11" d="M79.911 44.5444L81.4049 37.5131H81.9913L81.4249 40.1896C81.7116 39.9421 81.9966 39.74 82.2794 39.5848C82.5629 39.4265 82.8804 39.3488 83.2315 39.3488C83.5443 39.3488 83.8232 39.4034 84.0668 39.511C84.3104 39.6178 84.4949 39.8054 84.6186 40.072C84.7031 40.2542 84.7369 40.4401 84.7207 40.6321C84.7046 40.8251 84.6732 41.0256 84.6278 41.2332L83.9247 44.5435H83.3392L84.0422 41.2431C84.1398 40.7866 84.1121 40.4447 83.9593 40.2172C83.8063 39.9905 83.4959 39.8768 83.0271 39.8768C82.845 39.8768 82.6728 39.9029 82.51 39.9582C82.3478 40.0144 82.1957 40.0873 82.0558 40.1772C81.9151 40.2703 81.7899 40.374 81.68 40.4908C81.5693 40.6084 81.4779 40.732 81.4065 40.8612C81.315 41.0249 81.2467 41.1801 81.2013 41.3299C81.1551 41.4798 81.1129 41.642 81.0737 41.8194L80.4974 44.5428H79.911V44.5444Z" fill="black"/>
<path id="Vector_12" d="M86.7582 44.5439H86.1718L87.246 39.4852H87.8324L87.6865 40.1892C87.9731 39.9417 88.2574 39.7396 88.541 39.5843C88.8244 39.4261 89.1419 39.3484 89.493 39.3484C89.8058 39.3484 90.084 39.403 90.3283 39.5106C90.5727 39.6174 90.7563 39.8049 90.8801 40.0715C90.9646 40.2536 90.9985 40.4397 90.9822 40.6317C90.9661 40.8246 90.9347 41.0252 90.8893 41.2326L90.1854 44.5431H89.5999L90.3029 41.2426C90.4013 40.7862 90.3729 40.4443 90.22 40.2168C90.0671 39.9901 89.7566 39.8764 89.2878 39.8764C89.1058 39.8764 88.9336 39.9025 88.7707 39.9578C88.6078 40.0138 88.4564 40.0869 88.3166 40.1768C88.176 40.2698 88.0506 40.3735 87.9407 40.4904C87.8301 40.6079 87.7387 40.7316 87.6672 40.8607C87.5757 41.0244 87.5074 41.1797 87.4621 41.3295C87.4159 41.4794 87.3737 41.6414 87.3344 41.819L86.7582 44.5439Z" fill="black"/>
<path id="Vector_13" d="M94.4137 44.6807C94.0879 44.6746 93.7967 44.6154 93.5401 44.5048C93.2826 44.3949 93.0713 44.2288 92.9045 44.0075C92.7385 43.787 92.6294 43.5088 92.5779 43.1776C92.5256 42.8448 92.5457 42.4576 92.6364 42.0142C92.7147 41.6438 92.8369 41.2972 93.0029 40.9745C93.1688 40.6509 93.3756 40.3705 93.623 40.1307C93.8705 39.8895 94.1548 39.698 94.4775 39.5582C94.7996 39.4176 95.1561 39.3484 95.5464 39.3484C95.9438 39.3484 96.2742 39.4183 96.5385 39.5582C96.8021 39.698 97.0049 39.8878 97.1487 40.1253C97.2924 40.3627 97.3762 40.6432 97.403 40.9691C97.4291 41.2957 97.403 41.6431 97.3246 42.0134C97.2401 42.4169 97.1065 42.7826 96.9243 43.1084C96.743 43.4327 96.5239 43.714 96.2703 43.9483C96.0167 44.182 95.7316 44.3625 95.4158 44.4902C95.0985 44.6169 94.765 44.6807 94.4137 44.6807ZM96.6984 42.0142C96.7568 41.7152 96.7829 41.4355 96.7768 41.1743C96.7698 40.9138 96.7199 40.6878 96.6253 40.4957C96.5308 40.3035 96.3872 40.1522 96.1958 40.0416C96.0037 39.9309 95.7508 39.8764 95.4389 39.8764C95.133 39.8764 94.8579 39.9355 94.6136 40.0569C94.37 40.1753 94.1563 40.3366 93.9734 40.5349C93.7913 40.734 93.6415 40.9614 93.5247 41.2189C93.4078 41.4762 93.3194 41.7406 93.2611 42.0134C93.1966 42.327 93.1735 42.6136 93.1927 42.8779C93.2127 43.1423 93.2741 43.3674 93.3786 43.5565C93.4824 43.7463 93.6307 43.8923 93.8235 43.9975C94.0157 44.1006 94.2516 44.1528 94.5313 44.1528C94.8371 44.1528 95.1122 44.0921 95.3566 43.9722C95.601 43.8523 95.8124 43.691 95.9913 43.4888C96.1704 43.2868 96.3188 43.0592 96.4363 42.8049C96.5524 42.5513 96.6399 42.2878 96.6984 42.0142Z" fill="black"/>
<path id="Vector_14" d="M98.7785 44.5444L100.272 37.5131H100.858L99.364 44.5444H98.7785Z" fill="black"/>
<path id="Vector_15" d="M103.672 44.6807C103.346 44.6746 103.055 44.6154 102.798 44.5048C102.541 44.3949 102.329 44.2288 102.163 44.0075C101.997 43.787 101.888 43.5088 101.836 43.1776C101.784 42.8448 101.804 42.4576 101.894 42.0142C101.973 41.6438 102.094 41.2972 102.26 40.9745C102.426 40.6509 102.633 40.3705 102.881 40.1307C103.128 39.8895 103.413 39.698 103.736 39.5582C104.058 39.4176 104.414 39.3484 104.805 39.3484C105.202 39.3484 105.533 39.4183 105.797 39.5582C106.06 39.698 106.264 39.8878 106.407 40.1253C106.551 40.3627 106.635 40.6432 106.661 40.9691C106.687 41.2957 106.661 41.6431 106.583 42.0134C106.498 42.4169 106.364 42.7826 106.182 43.1084C106 43.4327 105.782 43.714 105.528 43.9483C105.275 44.182 104.99 44.3625 104.674 44.4902C104.357 44.6169 104.023 44.6807 103.672 44.6807ZM105.957 42.0142C106.016 41.7152 106.041 41.4355 106.035 41.1743C106.028 40.9138 105.978 40.6878 105.883 40.4957C105.788 40.3035 105.646 40.1522 105.454 40.0416C105.262 39.9309 105.009 39.8764 104.697 39.8764C104.391 39.8764 104.116 39.9355 103.872 40.0569C103.628 40.1753 103.414 40.3366 103.232 40.5349C103.049 40.734 102.9 40.9614 102.783 41.2189C102.666 41.4762 102.578 41.7406 102.519 42.0134C102.455 42.327 102.432 42.6136 102.451 42.8779C102.471 43.1423 102.532 43.3674 102.636 43.5565C102.741 43.7463 102.889 43.8923 103.081 43.9975C103.273 44.1006 103.509 44.1528 103.789 44.1528C104.095 44.1528 104.37 44.0921 104.614 43.9722C104.858 43.8523 105.07 43.691 105.249 43.4888C105.428 43.2868 105.576 43.0592 105.693 42.8049C105.81 42.5513 105.899 42.2878 105.957 42.0142Z" fill="black"/>
<path id="Vector_16" d="M112.929 39.4855H113.515L112.549 44.0562C112.477 44.3951 112.373 44.7178 112.241 45.0275C112.107 45.3364 111.926 45.6085 111.699 45.8436C111.47 46.078 111.188 46.2647 110.853 46.4045C110.518 46.5444 110.109 46.6143 109.628 46.6143C109.257 46.6143 108.948 46.5675 108.7 46.473C108.453 46.3785 108.259 46.2593 108.119 46.1163C107.979 45.9727 107.885 45.8137 107.836 45.6431C107.787 45.4694 107.775 45.308 107.802 45.1597H108.427C108.427 45.3487 108.462 45.5032 108.534 45.6238C108.606 45.743 108.702 45.8383 108.822 45.9066C108.943 45.9757 109.081 46.0219 109.237 46.048C109.393 46.0734 109.56 46.088 109.735 46.088C110.133 46.088 110.466 46.0181 110.737 45.8812C111.007 45.7452 111.228 45.5669 111.401 45.3456C111.573 45.1236 111.706 44.8739 111.801 44.5925C111.895 44.3128 111.972 44.0277 112.03 43.735C111.776 44.0454 111.467 44.2837 111.102 44.4419C110.737 44.6025 110.376 44.6824 110.018 44.6824C109.634 44.6824 109.315 44.6088 109.061 44.4635C108.807 44.3152 108.613 44.12 108.48 43.8764C108.346 43.632 108.268 43.3477 108.245 43.0219C108.222 42.6976 108.25 42.3572 108.328 42.006C108.407 41.6355 108.523 41.2875 108.68 40.9625C108.836 40.6358 109.031 40.3553 109.266 40.1163C109.5 39.8797 109.775 39.6914 110.091 39.5554C110.407 39.4186 110.77 39.3502 111.18 39.3502C111.342 39.3502 111.504 39.3741 111.663 39.4187C111.823 39.4647 111.973 39.53 112.113 39.6146C112.253 39.6984 112.376 39.8066 112.484 39.9365C112.592 40.0671 112.671 40.2132 112.723 40.3761H112.742L112.929 39.4855ZM112.392 42.0351C112.457 41.7286 112.48 41.4427 112.46 41.1799C112.44 40.9155 112.379 40.6881 112.274 40.4959C112.17 40.3039 112.024 40.1524 111.835 40.0418C111.645 39.9311 111.414 39.8766 111.142 39.8766C110.894 39.8766 110.657 39.9204 110.428 40.0081C110.2 40.0956 109.99 40.224 109.799 40.3938C109.607 40.5629 109.44 40.7695 109.301 41.0147C109.161 41.2575 109.055 41.541 108.984 41.8584C108.905 42.1781 108.87 42.4755 108.876 42.7521C108.882 43.0287 108.937 43.2724 109.038 43.4799C109.138 43.6881 109.287 43.8525 109.482 43.9731C109.677 44.093 109.927 44.1538 110.234 44.1538C110.501 44.1538 110.752 44.0961 110.986 43.9816C111.221 43.8695 111.432 43.7165 111.621 43.5245C111.81 43.3308 111.971 43.1072 112.104 42.8497C112.237 42.5931 112.333 42.3211 112.392 42.0351Z" fill="black"/>
<path id="Vector_17" d="M114.415 45.9121C114.486 45.9252 114.563 45.9375 114.644 45.9505C114.725 45.9651 114.808 45.9705 114.893 45.9705C115.055 45.9705 115.2 45.9183 115.327 45.8145C115.454 45.7115 115.567 45.587 115.664 45.4418C115.761 45.2966 115.85 45.1437 115.932 44.9854C116.013 44.8278 116.093 44.6926 116.172 44.5827L115.293 39.4856H115.947L116.65 43.8312L119.19 39.4856H119.824L116.875 44.4766C116.686 44.7941 116.514 45.0822 116.358 45.3343C116.201 45.5886 116.045 45.8045 115.889 45.9851C115.733 46.1642 115.569 46.3009 115.401 46.3947C115.231 46.4885 115.046 46.5369 114.844 46.5369C114.74 46.5369 114.641 46.5299 114.546 46.5177C114.451 46.5046 114.369 46.4877 114.297 46.4692L114.415 45.9121Z" fill="black"/>
<path id="Vector_18" d="M126.242 36.5369V47.2105H125.743V36.5369H126.242Z" fill="black"/>
<path id="Vector_19" d="M133.114 42.4447C133.074 42.7559 133.089 43.0218 133.154 43.2407C133.22 43.4583 133.325 43.635 133.475 43.7718C133.626 43.9086 133.811 44.0092 134.033 44.0699C134.254 44.1322 134.496 44.1629 134.763 44.1629C135.077 44.1629 135.355 44.1245 135.6 44.0446C135.842 43.967 136.052 43.8625 136.224 43.7295C136.398 43.595 136.538 43.4398 136.645 43.2654C136.754 43.0887 136.826 42.9042 136.864 42.709C136.924 42.4354 136.91 42.2127 136.821 42.0451C136.731 41.8738 136.599 41.7362 136.42 41.6294C136.241 41.5217 136.031 41.4357 135.791 41.3704C135.549 41.3058 135.302 41.242 135.048 41.1798C134.793 41.1175 134.546 41.0446 134.306 40.9608C134.064 40.8763 133.859 40.7618 133.691 40.6197C133.521 40.4759 133.398 40.2915 133.324 40.0679C133.249 39.842 133.247 39.5576 133.319 39.2126C133.371 38.9721 133.471 38.737 133.622 38.5102C133.771 38.2813 133.964 38.0791 134.198 37.9047C134.434 37.728 134.712 37.5881 135.032 37.4844C135.355 37.3798 135.711 37.3276 136.102 37.3276C136.5 37.3276 136.834 37.383 137.103 37.4943C137.374 37.605 137.587 37.7572 137.743 37.947C137.9 38.1406 138 38.3642 138.046 38.6171C138.091 38.8714 138.082 39.1419 138.016 39.427H137.383C137.441 39.1604 137.443 38.9298 137.387 38.7346C137.332 38.5394 137.24 38.3803 137.11 38.2567C136.979 38.1329 136.815 38.0423 136.616 37.9831C136.418 37.9254 136.208 37.8962 135.985 37.8962C135.647 37.8962 135.353 37.9431 135.102 38.0377C134.853 38.1322 134.642 38.2536 134.474 38.4042C134.304 38.5533 134.174 38.72 134.082 38.9029C133.992 39.0835 133.942 39.2672 133.937 39.4492C133.923 39.6767 133.974 39.8597 134.087 39.9964C134.201 40.1339 134.353 40.2438 134.541 40.333C134.731 40.4199 134.946 40.492 135.188 40.5474C135.428 40.6027 135.672 40.6596 135.918 40.7226C136.167 40.7849 136.403 40.8578 136.631 40.9431C136.86 41.0276 137.051 41.1421 137.207 41.2851C137.364 41.4281 137.476 41.6102 137.543 41.8368C137.613 42.0612 137.61 42.3417 137.539 42.6806C137.402 43.3323 137.07 43.8364 136.544 44.196C136.016 44.5533 135.345 44.7316 134.531 44.7316C134.168 44.7316 133.839 44.6848 133.545 44.5894C133.252 44.4957 133.015 44.352 132.828 44.1598C132.642 43.9678 132.517 43.7311 132.451 43.4475C132.386 43.1632 132.392 42.8304 132.472 42.4462H133.114V42.4447Z" fill="black"/>
<path id="Vector_20" d="M143.417 41.0785C143.396 40.6996 143.282 40.4053 143.075 40.1948C142.866 39.9835 142.567 39.8775 142.176 39.8775C141.876 39.8775 141.607 39.9389 141.366 40.0626C141.125 40.1864 140.913 40.3507 140.73 40.556C140.549 40.7612 140.398 40.9909 140.283 41.2483C140.164 41.5058 140.077 41.7655 140.019 42.026C139.959 42.2934 139.934 42.5524 139.944 42.8067C139.954 43.0611 140.006 43.2886 140.101 43.4907C140.194 43.6928 140.337 43.8542 140.525 43.974C140.714 44.0939 140.962 44.1546 141.268 44.1546C141.703 44.1546 142.08 44.034 142.397 43.7942C142.712 43.553 142.948 43.2202 143.104 42.7967H143.728C143.618 43.0757 143.482 43.3316 143.317 43.563C143.156 43.7957 142.968 43.994 142.753 44.1585C142.538 44.3252 142.297 44.4528 142.03 44.5442C141.763 44.6356 141.469 44.6818 141.149 44.6818C140.747 44.6818 140.413 44.6134 140.15 44.4765C139.886 44.339 139.685 44.1524 139.545 43.9141C139.404 43.6766 139.324 43.3954 139.305 43.0696C139.285 42.7438 139.314 42.3956 139.391 42.026C139.464 41.6725 139.585 41.3367 139.755 41.0155C139.923 40.6927 140.131 40.4077 140.379 40.1602C140.626 39.912 140.912 39.7169 141.234 39.5693C141.555 39.4225 141.905 39.3495 142.283 39.3495C142.87 39.3495 143.314 39.4893 143.617 39.7691C143.919 40.0488 144.05 40.4861 144.013 41.0792L143.417 41.0785Z" fill="black"/>
<path id="Vector_21" d="M145.447 44.5441L146.521 39.4853H147.107L146.034 44.5441H145.447ZM146.726 38.3826L146.913 37.512H147.556L147.37 38.3826H146.726Z" fill="black"/>
<path id="Vector_22" d="M149.227 42.1502C149.169 42.4245 149.149 42.6828 149.169 42.9279C149.188 43.1723 149.249 43.3843 149.355 43.5619C149.458 43.7417 149.606 43.8845 149.799 43.9929C149.991 44.0997 150.228 44.1535 150.507 44.1535C150.89 44.1535 151.241 44.0529 151.557 43.8508C151.872 43.6486 152.114 43.3613 152.285 42.9917H152.939C152.814 43.2322 152.673 43.4558 152.513 43.6601C152.354 43.8645 152.17 44.0429 151.96 44.1973C151.753 44.3494 151.519 44.4693 151.258 44.5531C150.997 44.6376 150.708 44.6807 150.388 44.6807C149.986 44.6807 149.651 44.6123 149.388 44.4756C149.123 44.3379 148.922 44.1513 148.782 43.913C148.641 43.6756 148.562 43.3966 148.544 43.0731C148.524 42.7511 148.552 42.4045 148.631 42.0342C148.709 41.6622 148.836 41.3134 149.012 40.9883C149.187 40.6632 149.399 40.3781 149.65 40.1353C149.901 39.891 150.185 39.698 150.5 39.5582C150.816 39.4176 151.155 39.3484 151.521 39.3484C152.217 39.3484 152.713 39.5889 153.01 40.0677C153.305 40.5457 153.353 41.2403 153.151 42.1509L149.227 42.1502ZM152.636 41.663C152.688 41.4163 152.702 41.1826 152.681 40.9652C152.657 40.7477 152.598 40.5588 152.5 40.3997C152.402 40.2391 152.262 40.1122 152.08 40.0185C151.897 39.9239 151.677 39.8771 151.416 39.8771C151.155 39.8771 150.916 39.9256 150.698 40.0223C150.479 40.1215 150.282 40.2513 150.107 40.4134C149.931 40.5756 149.777 40.7647 149.648 40.9791C149.518 41.1935 149.413 41.4224 149.337 41.663H152.636Z" fill="black"/>
<path id="Vector_23" d="M155.205 44.5439H154.618L155.693 39.4852H156.279L156.131 40.1892C156.42 39.9417 156.703 39.7396 156.985 39.5843C157.269 39.4261 157.587 39.3484 157.938 39.3484C158.25 39.3484 158.53 39.403 158.772 39.5106C159.017 39.6174 159.202 39.8049 159.325 40.0715C159.409 40.2536 159.443 40.4397 159.427 40.6317C159.41 40.8246 159.379 41.0252 159.335 41.2326L158.631 44.5431H158.047L158.749 41.2426C158.846 40.7862 158.82 40.4443 158.666 40.2168C158.514 39.9901 158.202 39.8764 157.733 39.8764C157.551 39.8764 157.379 39.9025 157.215 39.9578C157.053 40.0138 156.903 40.0869 156.762 40.1768C156.622 40.2698 156.496 40.3735 156.386 40.4904C156.274 40.6079 156.184 40.7316 156.112 40.8607C156.023 41.0244 155.954 41.1797 155.908 41.3295C155.86 41.4794 155.82 41.6414 155.78 41.819L155.205 44.5439Z" fill="black"/>
<path id="Vector_24" d="M165.195 41.0785C165.177 40.6996 165.062 40.4053 164.854 40.1948C164.646 39.9835 164.347 39.8775 163.957 39.8775C163.657 39.8775 163.387 39.9389 163.145 40.0626C162.903 40.1864 162.692 40.3507 162.512 40.556C162.328 40.7612 162.178 40.9909 162.061 41.2483C161.944 41.5058 161.856 41.7655 161.797 42.026C161.739 42.2934 161.715 42.5524 161.724 42.8067C161.734 43.0611 161.786 43.2886 161.88 43.4907C161.975 43.6928 162.116 43.8542 162.306 43.974C162.493 44.0939 162.742 44.1546 163.047 44.1546C163.483 44.1546 163.859 44.034 164.175 43.7942C164.491 43.553 164.727 43.2202 164.884 42.7967H165.509C165.398 43.0757 165.26 43.3316 165.099 43.563C164.936 43.7957 164.747 43.994 164.531 44.1585C164.317 44.3252 164.078 44.4528 163.81 44.5442C163.544 44.6356 163.251 44.6818 162.931 44.6818C162.528 44.6818 162.193 44.6134 161.93 44.4765C161.666 44.339 161.464 44.1524 161.324 43.9141C161.184 43.6766 161.104 43.3954 161.084 43.0696C161.064 42.7438 161.094 42.3956 161.173 42.026C161.244 41.6725 161.364 41.3367 161.534 41.0155C161.704 40.6927 161.912 40.4077 162.158 40.1602C162.407 39.912 162.692 39.7169 163.014 39.5693C163.337 39.4217 163.687 39.3495 164.064 39.3495C164.65 39.3495 165.094 39.4893 165.396 39.7691C165.7 40.0488 165.831 40.4861 165.792 41.0792L165.195 41.0785Z" fill="black"/>
<path id="Vector_25" d="M168.007 42.1502C167.95 42.4245 167.928 42.6828 167.95 42.9279C167.968 43.1723 168.031 43.3843 168.135 43.5619C168.239 43.7417 168.387 43.8845 168.579 43.9929C168.771 44.0997 169.007 44.1535 169.287 44.1535C169.67 44.1535 170.02 44.0529 170.337 43.8508C170.651 43.6486 170.895 43.3613 171.065 42.9917H171.718C171.595 43.2322 171.452 43.4558 171.294 43.6601C171.133 43.8654 170.95 44.0429 170.742 44.1973C170.533 44.3494 170.299 44.4693 170.038 44.5531C169.779 44.6376 169.488 44.6807 169.17 44.6807C168.766 44.6807 168.432 44.6123 168.168 44.4756C167.905 44.3379 167.702 44.1513 167.563 43.913C167.423 43.6756 167.344 43.3966 167.323 43.0731C167.304 42.7511 167.333 42.4045 167.412 42.0342C167.489 41.6622 167.616 41.3134 167.791 40.9883C167.967 40.6632 168.179 40.3781 168.432 40.1353C168.681 39.891 168.965 39.698 169.281 39.5582C169.597 39.4176 169.936 39.3484 170.301 39.3484C170.998 39.3484 171.495 39.5889 171.79 40.0677C172.088 40.5457 172.133 41.2403 171.932 42.1509L168.007 42.1502ZM171.416 41.663C171.466 41.4163 171.482 41.1826 171.459 40.9652C171.436 40.7477 171.376 40.5588 171.28 40.3997C171.18 40.2391 171.04 40.1122 170.858 40.0185C170.677 39.9239 170.455 39.8771 170.196 39.8771C169.935 39.8771 169.695 39.9256 169.477 40.0223C169.26 40.1215 169.062 40.2513 168.885 40.4134C168.71 40.5756 168.558 40.7647 168.428 40.9791C168.297 41.1935 168.192 41.4224 168.115 41.663H171.416Z" fill="black"/>
<path id="Vector_26" d="M179.177 36.5369V47.2105H178.68V36.5369H179.177Z" fill="black"/>
<path id="Vector_27" d="M185.331 44.5444L186.825 37.5131H191.502L191.385 38.0794H187.372L186.825 40.6199H190.447L190.331 41.1847H186.707L186.112 43.978H190.224L190.106 44.5444H185.331Z" fill="black"/>
<path id="Vector_28" d="M192.577 39.4856H193.213L193.935 43.8219L196.493 39.4856H197.129L194.091 44.5443H193.438L192.577 39.4856Z" fill="black"/>
<path id="Vector_29" d="M197.84 44.5441L198.913 39.4853H199.5L198.426 44.5441H197.84ZM199.119 38.3826L199.305 37.512H199.95L199.765 38.3826H199.119Z" fill="black"/>
<path id="Vector_30" d="M206.153 37.512H206.738L205.243 44.5433H204.659L204.843 43.6557H204.824C204.706 43.824 204.565 43.9724 204.404 44.0991C204.242 44.2266 204.072 44.3328 203.896 44.4173C203.721 44.501 203.543 44.5655 203.365 44.6125C203.186 44.6571 203.014 44.6808 202.852 44.6808C202.443 44.6808 202.107 44.6125 201.844 44.4756C201.585 44.3381 201.389 44.1513 201.26 43.9132C201.129 43.6757 201.058 43.3945 201.039 43.0687C201.024 42.7428 201.055 42.3948 201.134 42.0251C201.211 41.6716 201.329 41.3342 201.485 41.0092C201.64 40.6834 201.837 40.399 202.075 40.1539C202.313 39.9095 202.59 39.7158 202.906 39.5684C203.221 39.4215 203.571 39.3486 203.955 39.3486C204.314 39.3486 204.64 39.4285 204.938 39.5891C205.232 39.7482 205.44 39.9848 205.557 40.2969L206.153 37.512ZM205.195 41.9952C205.253 41.7084 205.271 41.4365 205.247 41.179C205.225 40.9216 205.161 40.6972 205.057 40.505C204.954 40.313 204.809 40.16 204.623 40.0455C204.437 39.9326 204.212 39.8757 203.945 39.8757C203.639 39.8757 203.362 39.9349 203.114 40.0564C202.866 40.1746 202.649 40.3406 202.46 40.5489C202.27 40.7572 202.114 41.0008 201.991 41.2774C201.868 41.5532 201.779 41.8499 201.728 42.1704C201.663 42.4877 201.647 42.7712 201.683 43.0149C201.718 43.2592 201.797 43.4659 201.913 43.6342C202.03 43.8048 202.184 43.9339 202.376 44.0215C202.569 44.1076 202.788 44.153 203.036 44.153C203.309 44.153 203.565 44.0968 203.802 43.9878C204.041 43.8755 204.252 43.7249 204.436 43.5328C204.622 43.3399 204.779 43.1124 204.905 42.8489C205.034 42.5861 205.13 42.3025 205.195 41.9952Z" fill="black"/>
<path id="Vector_31" d="M208.417 42.1502C208.361 42.4245 208.34 42.6828 208.361 42.9279C208.38 43.1723 208.441 43.3843 208.546 43.5619C208.649 43.7417 208.798 43.8845 208.99 43.9929C209.182 44.0997 209.418 44.1535 209.698 44.1535C210.083 44.1535 210.431 44.0529 210.748 43.8508C211.063 43.6486 211.307 43.3613 211.476 42.9917H212.129C212.006 43.2322 211.863 43.4558 211.705 43.6601C211.544 43.8654 211.361 44.0429 211.153 44.1973C210.944 44.3494 210.71 44.4693 210.449 44.5531C210.189 44.6376 209.898 44.6807 209.581 44.6807C209.177 44.6807 208.844 44.6123 208.579 44.4756C208.316 44.3379 208.114 44.1513 207.974 43.913C207.834 43.6756 207.754 43.3966 207.734 43.0731C207.714 42.7511 207.744 42.4045 207.823 42.0342C207.901 41.6622 208.027 41.3134 208.202 40.9883C208.378 40.6632 208.592 40.3781 208.843 40.1353C209.093 39.891 209.377 39.698 209.692 39.5582C210.008 39.4176 210.349 39.3484 210.712 39.3484C211.41 39.3484 211.906 39.5889 212.202 40.0677C212.499 40.5457 212.544 41.2403 212.343 42.1509L208.417 42.1502ZM211.826 41.663C211.877 41.4163 211.893 41.1826 211.87 40.9652C211.847 40.7477 211.787 40.5588 211.691 40.3997C211.592 40.2391 211.453 40.1122 211.27 40.0185C211.088 39.9239 210.866 39.8771 210.607 39.8771C210.345 39.8771 210.108 39.9256 209.888 40.0223C209.669 40.1215 209.473 40.2513 209.296 40.4134C209.121 40.5756 208.969 40.7647 208.839 40.9791C208.708 41.1935 208.603 41.4224 208.526 41.663H211.826Z" fill="black"/>
<path id="Vector_32" d="M214.394 44.5439H213.808L214.881 39.4852H215.468L215.32 40.1892C215.608 39.9417 215.892 39.7396 216.176 39.5843C216.458 39.4261 216.775 39.3484 217.128 39.3484C217.438 39.3484 217.718 39.403 217.963 39.5106C218.205 39.6174 218.39 39.8049 218.515 40.0715C218.598 40.2536 218.633 40.4397 218.618 40.6317C218.601 40.8246 218.57 41.0252 218.523 41.2326L217.822 44.5431H217.235L217.938 41.2426C218.036 40.7862 218.008 40.4443 217.855 40.2168C217.703 39.9901 217.391 39.8764 216.924 39.8764C216.741 39.8764 216.568 39.9025 216.405 39.9578C216.241 40.0138 216.091 40.0869 215.951 40.1768C215.81 40.2698 215.685 40.3735 215.575 40.4904C215.465 40.6079 215.373 40.7316 215.303 40.8607C215.21 41.0244 215.142 41.1797 215.097 41.3295C215.051 41.4794 215.008 41.6414 214.971 41.819L214.394 44.5439Z" fill="black"/>
<path id="Vector_33" d="M224.385 41.0785C224.364 40.6996 224.251 40.4053 224.043 40.1948C223.834 39.9835 223.534 39.8775 223.144 39.8775C222.844 39.8775 222.574 39.9389 222.334 40.0626C222.092 40.1864 221.88 40.3507 221.699 40.556C221.516 40.7612 221.365 40.9909 221.25 41.2483C221.133 41.5058 221.046 41.7655 220.986 42.026C220.927 42.2934 220.902 42.5524 220.913 42.8067C220.922 43.0611 220.973 43.2886 221.069 43.4907C221.162 43.6928 221.304 43.8542 221.493 43.974C221.682 44.0939 221.93 44.1546 222.236 44.1546C222.67 44.1546 223.047 44.034 223.365 43.7942C223.678 43.553 223.916 43.2202 224.071 42.7967H224.696C224.586 43.0757 224.45 43.3316 224.286 43.563C224.124 43.7957 223.934 43.994 223.72 44.1585C223.507 44.3252 223.263 44.4528 222.997 44.5442C222.73 44.6356 222.438 44.6818 222.118 44.6818C221.714 44.6818 221.38 44.6134 221.118 44.4765C220.853 44.339 220.652 44.1524 220.512 43.9141C220.371 43.6766 220.291 43.3954 220.271 43.0696C220.254 42.7438 220.281 42.3956 220.359 42.026C220.431 41.6725 220.551 41.3367 220.722 41.0155C220.891 40.6927 221.098 40.4077 221.347 40.1602C221.595 39.912 221.879 39.7169 222.202 39.5693C222.524 39.4225 222.873 39.3495 223.251 39.3495C223.838 39.3495 224.28 39.4893 224.583 39.7691C224.887 40.0488 225.017 40.4861 224.98 41.0792L224.385 41.0785Z" fill="black"/>
<path id="Vector_34" d="M227.195 42.1502C227.138 42.4245 227.118 42.6828 227.138 42.9279C227.156 43.1723 227.217 43.3843 227.322 43.5619C227.426 43.7417 227.575 43.8845 227.767 43.9929C227.958 44.0997 228.195 44.1535 228.475 44.1535C228.858 44.1535 229.209 44.0529 229.524 43.8508C229.84 43.6486 230.082 43.3613 230.252 42.9917H230.908C230.784 43.2322 230.642 43.4558 230.48 43.6601C230.322 43.8654 230.137 44.0429 229.929 44.1973C229.72 44.3494 229.488 44.4693 229.227 44.5531C228.966 44.6376 228.676 44.6807 228.358 44.6807C227.953 44.6807 227.62 44.6123 227.355 44.4756C227.091 44.3379 226.89 44.1513 226.749 43.913C226.609 43.6756 226.531 43.3966 226.511 43.0731C226.492 42.7511 226.521 42.4045 226.598 42.0342C226.677 41.6622 226.803 41.3134 226.979 40.9883C227.155 40.6632 227.367 40.3781 227.618 40.1353C227.871 39.891 228.153 39.698 228.469 39.5582C228.783 39.4176 229.124 39.3484 229.489 39.3484C230.184 39.3484 230.681 39.5889 230.979 40.0677C231.275 40.5457 231.321 41.2403 231.121 42.1509L227.195 42.1502ZM230.604 41.663C230.655 41.4163 230.67 41.1826 230.648 40.9652C230.625 40.7477 230.567 40.5588 230.468 40.3997C230.371 40.2391 230.231 40.1122 230.048 40.0185C229.865 39.9239 229.645 39.8771 229.383 39.8771C229.123 39.8771 228.886 39.9256 228.666 40.0223C228.448 40.1215 228.25 40.2513 228.075 40.4134C227.898 40.5756 227.746 40.7647 227.616 40.9791C227.485 41.1935 227.381 41.4224 227.304 41.663H230.604Z" fill="black"/>
</g>
</g>
</g>
</g>
</g>
<defs>
<clipPath id="clip0_3_843">
<rect width="246" height="49.9492" fill="white" transform="translate(0 0.0253906)"/>
</clipPath>
</defs>
</svg>
