<svg width="276" height="58" viewBox="0 0 276 58" fill="none" xmlns="http://www.w3.org/2000/svg">
<g clip-path="url(#clip0_113_229)">
<mask id="mask0_113_229" style="mask-type:luminance" maskUnits="userSpaceOnUse" x="0" y="0" width="276" height="58">
<path d="M275.892 0.979492H0V57.0201H275.892V0.979492Z" fill="white"/>
</mask>
<g mask="url(#mask0_113_229)">
<path fill-rule="evenodd" clip-rule="evenodd" d="M34.6617 29.5639C34.5833 29.2578 34.3221 28.8337 34.2092 28.6965C34.1187 28.6077 34.0272 28.4568 33.9755 28.2654L33.9859 28.0275L34.0755 26.2058L34.0799 26.179C34.1169 25.91 34.3022 24.534 34.3022 23.8133C34.3022 23.1011 33.8497 22.1553 33.7539 21.9639C33.9178 20.5853 33.8221 18.3747 33.8117 18.1962C33.8306 18.0764 33.9583 17.1426 33.9583 16.7771C33.9583 16.4159 33.9583 15.8107 33.4255 14.9916C32.8634 14.126 32.0477 14.0527 31.1984 14.0527C31.1959 14.0527 31.1934 14.0527 31.1916 14.0527C31.0537 14.0329 30.0053 13.5138 29.2646 13.1345L29.293 12.1878C29.457 11.9637 29.4673 11.8757 29.4707 11.8464C29.4794 11.7766 29.5294 11.4102 29.5811 11.0222L29.5819 11.0144C29.8138 10.9041 29.9871 10.6023 30.0242 10.4428C30.0311 10.4118 30.0406 10.3782 30.0483 10.3428C30.1259 10.035 30.2131 9.68411 30.0062 9.57634C29.9879 9.56686 29.969 9.5591 29.9501 9.55479C30.0087 9.26855 30.0389 8.87627 29.9242 8.16326C29.7914 7.33731 28.7448 7.0459 27.8912 7.0459H27.8662C26.9964 7.0459 25.9462 7.33903 25.8556 8.16929C25.7884 8.7892 25.778 9.24614 25.8229 9.55565C25.8056 9.56082 25.7867 9.56773 25.7703 9.57634C25.5626 9.68411 25.6496 10.035 25.7272 10.3428C25.735 10.3782 25.7444 10.4118 25.7513 10.4428C25.7919 10.6221 25.9694 10.8998 26.1824 11.0093L26.1842 11.0274C26.2376 11.4128 26.2867 11.7766 26.2944 11.8464C26.3005 11.8981 26.3247 11.9585 26.3704 12.037L26.4221 13.1362C25.6815 13.5156 24.634 14.0337 24.503 14.0536C23.6441 14.0536 22.8269 14.1251 22.2622 14.9925C21.7285 15.8124 21.7285 16.4168 21.7285 16.7779C21.7285 17.1426 21.857 18.0772 21.8742 18.1972C21.8656 18.3755 21.7699 20.5862 21.9328 21.9648C21.8363 22.1553 21.3844 23.1011 21.3844 23.8141C21.3844 24.5349 21.5706 25.9117 21.6069 26.1799L21.6104 26.2066L21.7086 28.1793C21.663 28.412 21.5578 28.5948 21.4535 28.6982C21.3388 28.8354 21.0793 29.2596 21.0017 29.5656C20.8904 30.0502 20.4205 30.8053 20.4465 30.9261C20.5301 31.0838 20.6715 31.1416 20.7991 31.0658C20.9388 30.9709 21.2638 30.6287 21.3068 30.4589C21.3689 30.6683 21.6379 32.1857 21.7423 32.3703C21.7794 32.5417 21.8923 32.6961 22.0216 32.6995C22.1406 32.6573 22.213 32.6013 22.213 32.6013C22.2493 32.7694 22.313 32.9789 22.5449 32.9919C22.6578 32.9737 22.7045 32.8927 22.6958 32.7823C22.7846 32.8116 23.0053 32.7495 23.0665 32.5909C23.1174 32.4529 23.152 32.2771 23.1665 32.1883C23.1649 32.1642 23.1726 32.1555 23.1665 32.1883C23.17 32.2227 23.207 32.2659 23.2925 32.2702C23.3787 32.2582 23.4451 32.2063 23.4743 31.8856C23.4942 31.6814 23.4899 31.0753 23.483 31.0442C23.476 31.0132 23.4442 30.5726 23.4322 30.3665C23.4924 30.1295 23.4588 29.3837 23.4287 29.2474C23.395 29.094 23.3382 28.9776 23.1433 28.6681C23.1614 28.4034 23.1674 28.1844 23.1709 28.1C23.1769 28.0215 23.1829 27.9379 23.1856 27.8715C23.2037 27.5275 23.2294 27.1714 23.2329 27.0998C23.2657 26.9904 23.3313 26.8274 23.4088 26.6386C23.6425 26.0695 23.9978 25.2064 23.9822 24.3926C23.9718 23.7882 23.9555 23.283 23.9459 23.0373C23.9399 22.8614 23.933 22.7201 23.9295 22.6234C23.9253 22.5683 23.9243 22.5225 23.9183 22.4864L23.9218 22.4614C23.9804 21.9243 24.0925 20.8828 24.1383 20.1414C24.2969 20.5939 24.5391 21.1923 24.8616 21.7363C24.8608 22.5131 24.8374 23.0055 24.8193 23.4011C24.8064 23.6468 24.7977 23.8451 24.7961 24.0478C24.6892 24.2107 24.2452 24.9642 24.24 26.0817C24.0632 26.7282 23.883 27.4472 23.8735 27.893V27.8991V27.9034C23.8778 27.9508 24.2029 32.6358 24.5555 33.8859C24.6192 34.1092 24.6935 34.3541 24.7711 34.6119C25.0806 35.6412 25.466 36.9224 25.4358 37.6898C25.4246 38.0053 25.3332 38.2761 25.2288 38.5889C25.0194 39.2089 24.7832 39.9142 25.0659 41.2479C25.2987 42.342 25.4565 42.8239 25.6082 43.2922C25.7332 43.6809 25.8531 44.0473 26.0126 44.7405C26.0825 45.0431 26.1394 45.2906 26.1875 45.4975C26.3739 46.2968 26.4144 46.4683 26.4187 46.7545C26.3565 46.7968 26.266 46.8709 26.2066 46.9805C26.1471 47.089 26.1445 47.2563 26.2058 47.3761C26.0858 47.4874 25.9505 47.5969 25.8712 47.6495C25.7643 47.7254 25.6065 47.8917 25.5651 47.9383C25.497 47.9909 25.4694 48.0728 25.4565 48.1341C25.3892 48.1779 25.3488 48.2418 25.3469 48.3194C25.3444 48.4272 25.4177 48.5315 25.5211 48.5737C25.5841 48.597 25.6514 48.6013 25.7022 48.5918C25.7419 48.6142 25.7988 48.6314 25.8797 48.6384C25.9712 48.6478 26.0358 48.6366 26.0858 48.6202C26.1221 48.641 26.173 48.653 26.2394 48.653C26.3419 48.653 26.4152 48.6358 26.4677 48.61C26.5144 48.647 26.5773 48.6754 26.6643 48.6754H26.6877C26.8739 48.6754 26.9954 48.6237 27.0688 48.5685C27.1541 48.6272 27.2972 48.6814 27.5456 48.6582C27.6749 48.6461 27.7739 48.615 27.8421 48.5685C27.9111 48.616 28.0093 48.647 28.1404 48.6582C28.3878 48.6806 28.5309 48.6272 28.6172 48.5685C28.6913 48.6237 28.8102 48.6754 28.9974 48.6754H29.019C29.1052 48.6754 29.1707 48.647 29.2164 48.61C29.2689 48.6358 29.3431 48.653 29.4414 48.653H29.4518C29.5155 48.653 29.5639 48.641 29.6 48.6202C29.65 48.6374 29.7147 48.647 29.8036 48.6384C29.8837 48.6314 29.9414 48.615 29.9802 48.5918C30.0311 48.6021 30.1018 48.5978 30.1639 48.5737C30.2665 48.5315 30.3406 48.4272 30.3381 48.3194C30.3354 48.2418 30.2949 48.1779 30.2268 48.1341C30.2156 48.0737 30.1872 47.9909 30.1191 47.9383C30.0786 47.8917 29.9207 47.7254 29.8138 47.6495C29.7353 47.5961 29.6 47.4874 29.4802 47.3761C29.5414 47.2563 29.5396 47.089 29.4794 46.9805C29.419 46.8709 29.3293 46.7968 29.2664 46.7545C29.2716 46.4683 29.3113 46.2968 29.4983 45.4975C29.5466 45.2906 29.6043 45.0431 29.6751 44.7405C29.8328 44.0473 29.9526 43.6809 30.0794 43.2922C30.232 42.8239 30.3881 42.3411 30.6191 41.2479C30.9028 39.9142 30.6666 39.2089 30.4578 38.5889C30.3536 38.2761 30.2621 38.0053 30.2501 37.6898C30.2208 36.9216 30.6054 35.6412 30.9157 34.6119C30.9933 34.3541 31.0666 34.1092 31.1295 33.8859C31.4848 32.6358 31.808 27.9499 31.8107 27.9034V27.8991V27.893C31.8011 27.4472 31.6218 26.7282 31.445 26.0817C31.4408 24.9651 30.9958 24.2116 30.8889 24.0478C30.8881 23.8451 30.8786 23.6468 30.8665 23.4011C30.8476 23.0055 30.8235 22.5131 30.8225 21.7363C31.1467 21.1923 31.3881 20.5939 31.5459 20.1414C31.5925 20.8828 31.7038 21.9243 31.7632 22.4614L31.7658 22.4864C31.7598 22.5225 31.7588 22.5683 31.7555 22.6234C31.752 22.7201 31.7459 22.8614 31.7382 23.0373C31.7314 23.283 31.7132 23.7882 31.7028 24.3926C31.6865 25.2064 32.0417 26.0695 32.2754 26.6386C32.352 26.8264 32.4193 26.9904 32.452 27.0998C32.4555 27.1843 32.4761 27.6361 32.4857 28.0145C32.4892 28.1249 32.4917 28.3154 32.4917 28.3154L32.496 28.3181C32.5004 28.4172 32.5056 28.5371 32.5149 28.6681C32.3192 28.9776 32.2615 29.094 32.2305 29.2474C32.2003 29.3837 32.1658 30.1295 32.2262 30.3665C32.2133 30.5726 32.1831 31.0132 32.1762 31.0442C32.1693 31.0743 32.165 31.6805 32.1839 31.8856C32.2142 32.2063 32.2814 32.259 32.3667 32.2702C32.452 32.2659 32.4892 32.2227 32.4917 32.1883C32.4857 32.1555 32.4935 32.1642 32.4917 32.1883C32.5081 32.2771 32.5417 32.4529 32.5917 32.5909C32.6538 32.7495 32.8763 32.8116 32.9624 32.7823C32.9539 32.8927 32.9996 32.9747 33.1133 32.9919C33.3479 32.9789 33.4108 32.7694 33.4462 32.6013C33.4462 32.6013 33.5195 32.6573 33.6376 32.6995C33.7661 32.6961 33.8798 32.5417 33.916 32.3703C34.0203 32.1857 34.2885 30.6683 34.3522 30.4589C34.3954 30.6287 34.7213 30.9709 34.861 31.0658C34.9877 31.1416 35.1291 31.0838 35.2127 30.9261C35.242 30.8045 34.773 30.0484 34.6617 29.5639ZM27.7757 34.0739C27.7757 34.0679 27.8033 33.7281 27.8386 33.3342L27.9128 34.0712C27.9395 34.586 27.8964 35.23 27.8438 35.8051C27.793 35.23 27.7498 34.586 27.7757 34.0739ZM27.9783 47.6986C27.9904 47.7478 27.9214 47.8815 27.8524 47.9711C27.8499 47.9728 27.8472 47.9753 27.843 47.9788C27.8403 47.9753 27.8378 47.9728 27.836 47.9711C27.7662 47.8815 27.6981 47.747 27.7102 47.6986C27.8534 47.1314 27.7343 46.8123 27.7309 46.8037C27.6412 46.5321 27.4885 44.144 27.6153 43.5128L27.6446 43.3679C27.7282 42.9481 27.8059 42.5688 27.843 42.0902C27.8826 42.5696 27.9584 42.9481 28.0439 43.3679L28.0714 43.5128C28.1981 44.144 28.0464 46.5321 27.9584 46.8003C27.9542 46.8115 27.8351 47.1305 27.9783 47.6986Z" fill="white"/>
<path d="M55.2384 56.4369C46.897 54.0521 40.5808 42.8741 40.5808 29.4314C40.5808 15.9885 46.897 4.8114 55.2384 2.42494V2.34131C44.3571 4.54414 36.0673 15.8281 36.0673 29.4314C36.0673 43.0329 44.3561 54.3168 55.2376 56.5196L55.2384 56.4369Z" fill="white"/>
<path d="M0.423523 2.42407C8.76495 4.8114 15.0812 15.9885 15.0812 29.4305C15.0812 42.8741 8.76409 54.0521 0.423523 56.4369V56.5196C11.3049 54.3168 19.5937 43.0329 19.5937 29.4305C19.5937 15.8281 11.3049 4.54414 0.423523 2.34131V2.42407Z" fill="white"/>
<path d="M71.7465 15.7004H56.6353V22.6459H70.0298V26.8439H56.6353V34.0171H71.9379V38.2158H51.9409V11.5034H71.7465V15.7004Z" fill="white"/>
<path d="M96.5029 38.2154L88.959 27.9651L81.3721 38.2154H75.5912L86.0467 24.4458L76.0016 11.1426H81.9471L89.0815 20.8497L96.2564 11.1426H102.038L92.0336 24.369L102.448 38.2162L96.5029 38.2154Z" fill="white"/>
<path d="M117.394 29.6286H112.089V38.2158H107.396V11.5034H117.928C124.149 11.5034 128.078 15.0142 128.078 20.4707C128.078 26.499 123.27 29.6286 117.394 29.6286ZM117.545 15.778H112.089V25.3938H117.545C121.095 25.3938 123.308 23.4479 123.308 20.5855C123.309 17.4179 121.057 15.778 117.545 15.778Z" fill="white"/>
<path d="M152.693 15.7004H137.581V22.6459H150.976V26.8439H137.581V34.0171H152.884V38.2158H132.888V11.5034H152.693V15.7004Z" fill="white"/>
<path d="M175.587 38.2158L169.024 28.9036H163.147V38.2158H158.454V11.5034H170.361C176.504 11.5034 180.284 14.7469 180.284 19.975C180.284 24.4023 177.65 27.0723 173.91 28.1035L181.122 38.2167L175.587 38.2158ZM169.978 15.778H163.147V24.7445H170.016C173.374 24.7445 175.512 22.9892 175.512 20.2414C175.512 17.304 173.452 15.778 169.978 15.778Z" fill="white"/>
<path d="M197.225 38.2158H192.496V15.853H184.022V11.5034H205.697V15.853H197.227V38.2158H197.225Z" fill="white"/>
<path d="M223.787 31.6504H223.634L215.277 19.1343V38.2149H210.661V11.5024H215.659L223.788 24.1331L231.915 11.5024H236.914V38.2157H232.221V19.0585L223.787 31.6504Z" fill="white"/>
<path d="M259.961 38.2149L253.397 28.9026H247.521V38.2149H242.829V11.5024H254.734C260.878 11.5024 264.656 14.7459 264.656 19.9741C264.656 24.4013 262.023 27.0713 258.282 28.1025L265.496 38.2157L259.961 38.2149ZM254.351 15.777H247.521V24.7435H254.39C257.75 24.7435 259.885 22.9882 259.885 20.2405C259.885 17.303 257.826 15.777 254.351 15.777Z" fill="white"/>
<path d="M275.379 11.5024V38.2157H270.685V11.5024H275.379Z" fill="white"/>
<path d="M69.6503 43.0376H75.3915L75.2604 43.6731H72.7628L71.2177 50.9264H70.4728L72.0179 43.6731H69.5193L69.6503 43.0376Z" fill="white"/>
<path d="M76.5865 48.2416C76.5211 48.5494 76.4987 48.8391 76.5211 49.1142C76.5427 49.3883 76.6125 49.6262 76.7289 49.8254C76.8453 50.0272 77.0124 50.1875 77.2272 50.3091C77.4427 50.4289 77.7083 50.4893 78.0222 50.4893C78.4533 50.4893 78.8455 50.3763 79.1999 50.1496C79.5542 49.9228 79.8267 49.6004 80.0162 49.1857H80.7509C80.6112 49.4556 80.4525 49.7065 80.274 49.9357C80.0957 50.1651 79.8887 50.3651 79.655 50.5384C79.4205 50.7091 79.1575 50.8436 78.8653 50.9376C78.5739 51.0324 78.248 51.0808 77.8902 51.0808C77.4375 51.0808 77.0634 51.004 76.7669 50.8506C76.4711 50.6962 76.2452 50.4867 76.0883 50.2194C75.9304 49.9531 75.8418 49.6401 75.8193 49.2771C75.7978 48.9158 75.8305 48.527 75.9184 48.1114C76.0055 47.6941 76.1486 47.3028 76.3451 46.9381C76.5427 46.5733 76.7814 46.2534 77.0634 45.9811C77.3445 45.7069 77.6617 45.4904 78.0161 45.3335C78.3696 45.1758 78.7515 45.0981 79.161 45.0981C79.943 45.0981 80.5 45.368 80.8319 45.9051C81.1646 46.4414 81.2173 47.2208 80.9905 48.2424L76.5865 48.2416ZM80.4103 47.6951C80.4689 47.4182 80.4853 47.1561 80.4594 46.9122C80.4344 46.6681 80.3663 46.4561 80.2568 46.2777C80.1474 46.0975 79.9896 45.9551 79.786 45.8499C79.5809 45.7439 79.3335 45.6913 79.0411 45.6913C78.7489 45.6913 78.4807 45.7457 78.2351 45.8543C77.9902 45.9655 77.7696 46.1112 77.5729 46.2931C77.3755 46.4751 77.204 46.6872 77.0583 46.9277C76.9126 47.1683 76.7953 47.4251 76.7073 47.6951H80.4103Z" fill="white"/>
<path d="M87.4766 47.0395C87.455 46.6144 87.3274 46.2842 87.0929 46.048C86.8592 45.8109 86.5229 45.692 86.085 45.692C85.7487 45.692 85.4453 45.7609 85.1754 45.8997C84.9056 46.0386 84.6676 46.2229 84.4641 46.4533C84.2589 46.6835 84.0908 46.9412 83.9598 47.23C83.8288 47.5189 83.7296 47.8103 83.664 48.1025C83.5986 48.4025 83.571 48.6931 83.5814 48.9785C83.5926 49.2638 83.6511 49.5191 83.7572 49.7458C83.8632 49.9726 84.0218 50.1536 84.2331 50.2881C84.4452 50.4226 84.7228 50.4907 85.0659 50.4907C85.5557 50.4907 85.9772 50.3554 86.3316 50.0864C86.6859 49.8157 86.9507 49.4423 87.1256 48.9673H87.8266C87.7024 49.2802 87.5499 49.5673 87.3662 49.8269C87.1842 50.0881 86.9722 50.3105 86.7307 50.4951C86.4903 50.6821 86.2195 50.8253 85.9204 50.9278C85.6211 51.0304 85.2919 51.0822 84.934 51.0822C84.4814 51.0822 84.1072 51.0055 83.8106 50.8519C83.515 50.6976 83.289 50.4882 83.1321 50.2209C82.9743 49.9544 82.8855 49.6389 82.8631 49.2734C82.8406 48.9078 82.8743 48.5172 82.9623 48.1025C83.0424 47.7059 83.1777 47.3292 83.3674 46.9688C83.5571 46.6067 83.7908 46.2868 84.0684 46.0091C84.346 45.7308 84.6659 45.5118 85.0272 45.3462C85.3892 45.1816 85.7815 45.0996 86.2057 45.0996C86.8635 45.0996 87.361 45.2565 87.7016 45.5704C88.0412 45.8842 88.1887 46.3748 88.1456 47.0403L87.4766 47.0395Z" fill="white"/>
<path d="M89.6561 50.9279L91.3322 43.0391H91.9901L91.3546 46.042C91.6763 45.7643 91.9961 45.5376 92.3133 45.3635C92.6315 45.1858 92.9876 45.0987 93.3816 45.0987C93.7325 45.0987 94.0454 45.1599 94.3187 45.2807C94.592 45.4005 94.799 45.6109 94.9378 45.91C95.0327 46.1144 95.0705 46.323 95.0524 46.5385C95.0343 46.755 94.999 46.98 94.9482 47.2128L94.1593 50.9269H93.5023L94.2911 47.224C94.4007 46.7118 94.3696 46.3282 94.1981 46.073C94.0265 45.8187 93.6782 45.691 93.1522 45.691C92.948 45.691 92.7548 45.7203 92.5721 45.7824C92.3901 45.8454 92.2194 45.9273 92.0625 46.0281C91.9046 46.1325 91.7641 46.2489 91.6408 46.3799C91.5167 46.5119 91.4141 46.6506 91.334 46.7955C91.2313 46.9791 91.1547 47.1533 91.1038 47.3214C91.052 47.4895 91.0046 47.6715 90.9606 47.8706L90.3141 50.9261H89.6561V50.9279Z" fill="white"/>
<path d="M97.3383 50.9272H96.6804L97.8857 45.2517H98.5436L98.3798 46.0415C98.7013 45.7638 99.0203 45.5371 99.3385 45.3628C99.6565 45.1853 100.013 45.0981 100.407 45.0981C100.758 45.0981 101.07 45.1594 101.344 45.2801C101.618 45.3999 101.824 45.6104 101.963 45.9095C102.058 46.1137 102.096 46.3225 102.077 46.538C102.059 46.7544 102.024 46.9794 101.973 47.2121L101.184 50.9264H100.527L101.315 47.2233C101.426 46.7113 101.394 46.3277 101.222 46.0724C101.051 45.8181 100.702 45.6905 100.176 45.6905C99.9722 45.6905 99.779 45.7198 99.5963 45.7818C99.4135 45.8447 99.2437 45.9267 99.0868 46.0276C98.929 46.132 98.7883 46.2482 98.665 46.3794C98.5409 46.5112 98.4384 46.6501 98.3582 46.7949C98.2555 46.9786 98.1789 47.1527 98.128 47.3209C98.0762 47.489 98.0288 47.6708 97.9848 47.8701L97.3383 50.9272Z" fill="white"/>
<path d="M105.927 51.0808C105.562 51.0739 105.235 51.0075 104.947 50.8834C104.658 50.7601 104.421 50.5737 104.234 50.3255C104.048 50.0781 103.926 49.7659 103.868 49.3944C103.809 49.021 103.832 48.5865 103.933 48.089C104.021 47.6735 104.158 47.2846 104.345 46.9225C104.531 46.5595 104.763 46.2449 105.04 45.9759C105.318 45.7052 105.637 45.4904 105.999 45.3335C106.36 45.1758 106.76 45.0981 107.198 45.0981C107.644 45.0981 108.015 45.1766 108.311 45.3335C108.607 45.4904 108.835 45.7034 108.996 45.9699C109.157 46.2362 109.251 46.5509 109.281 46.9165C109.311 47.2829 109.281 47.6727 109.193 48.0882C109.099 48.5409 108.949 48.9512 108.744 49.3167C108.541 49.6806 108.295 49.9961 108.011 50.2591C107.726 50.5212 107.406 50.7238 107.052 50.867C106.696 51.0092 106.322 51.0808 105.927 51.0808ZM108.491 48.089C108.556 47.7536 108.586 47.4398 108.579 47.1467C108.571 46.8545 108.515 46.6009 108.409 46.3854C108.303 46.1698 108.142 46 107.927 45.8758C107.711 45.7517 107.428 45.6905 107.078 45.6905C106.734 45.6905 106.426 45.7569 106.152 45.8931C105.878 46.0259 105.639 46.2069 105.433 46.4294C105.229 46.6527 105.061 46.9078 104.93 47.1967C104.799 47.4855 104.7 47.7821 104.634 48.0882C104.562 48.44 104.536 48.7615 104.558 49.0581C104.58 49.3547 104.649 49.6073 104.766 49.8194C104.883 50.0324 105.049 50.1962 105.265 50.3143C105.481 50.4298 105.746 50.4884 106.059 50.4884C106.403 50.4884 106.711 50.4203 106.985 50.2858C107.26 50.1513 107.497 49.9703 107.698 49.7435C107.898 49.5168 108.065 49.2615 108.197 48.9762C108.327 48.6916 108.425 48.396 108.491 48.089Z" fill="white"/>
<path d="M110.825 50.9279L112.501 43.0391H113.158L111.482 50.9279H110.825Z" fill="white"/>
<path d="M116.315 51.0808C115.949 51.0739 115.622 51.0075 115.334 50.8834C115.046 50.7601 114.809 50.5737 114.621 50.3255C114.436 50.0781 114.313 49.7659 114.255 49.3944C114.196 49.021 114.219 48.5865 114.321 48.089C114.409 47.6735 114.545 47.2846 114.731 46.9225C114.917 46.5595 115.149 46.2449 115.428 45.9759C115.704 45.7052 116.024 45.4904 116.386 45.3335C116.748 45.1758 117.148 45.0981 117.586 45.0981C118.031 45.0981 118.403 45.1766 118.699 45.3335C118.994 45.4904 119.223 45.7034 119.383 45.9699C119.544 46.2362 119.639 46.5509 119.669 46.9165C119.698 47.2829 119.669 47.6727 119.581 48.0882C119.486 48.5409 119.336 48.9512 119.131 49.3167C118.927 49.6806 118.682 49.9961 118.398 50.2591C118.113 50.5212 117.793 50.7238 117.439 50.867C117.083 51.0092 116.709 51.0808 116.315 51.0808ZM118.878 48.089C118.944 47.7536 118.973 47.4398 118.966 47.1467C118.958 46.8545 118.902 46.6009 118.796 46.3854C118.689 46.1698 118.53 46 118.314 45.8758C118.099 45.7517 117.815 45.6905 117.465 45.6905C117.122 45.6905 116.813 45.7569 116.539 45.8931C116.266 46.0259 116.026 46.2069 115.821 46.4294C115.616 46.6527 115.448 46.9078 115.317 47.1967C115.186 47.4855 115.087 47.7821 115.022 48.0882C114.949 48.44 114.923 48.7615 114.945 49.0581C114.967 49.3547 115.036 49.6073 115.153 49.8194C115.27 50.0324 115.436 50.1962 115.652 50.3143C115.867 50.4298 116.132 50.4884 116.446 50.4884C116.789 50.4884 117.098 50.4203 117.372 50.2858C117.646 50.1513 117.883 49.9703 118.084 49.7435C118.285 49.5168 118.451 49.2615 118.582 48.9762C118.714 48.6916 118.813 48.396 118.878 48.089Z" fill="white"/>
<path d="M126.701 45.2518H127.359L126.274 50.38C126.194 50.7602 126.077 51.1222 125.929 51.4697C125.779 51.8163 125.576 52.1216 125.321 52.3854C125.064 52.6483 124.748 52.8578 124.372 53.0147C123.996 53.1716 123.537 53.2501 122.997 53.2501C122.581 53.2501 122.234 53.1975 121.956 53.0915C121.679 52.9854 121.461 52.8518 121.305 52.6914C121.147 52.5302 121.042 52.3518 120.986 52.1604C120.932 51.9655 120.918 51.7845 120.948 51.618H121.649C121.649 51.8302 121.689 52.0035 121.77 52.1388C121.85 52.2725 121.958 52.3794 122.093 52.456C122.229 52.5336 122.383 52.5854 122.559 52.6147C122.734 52.6432 122.921 52.6596 123.118 52.6596C123.563 52.6596 123.938 52.5811 124.241 52.4275C124.544 52.275 124.793 52.0749 124.986 51.8267C125.18 51.5775 125.329 51.2973 125.435 50.9817C125.54 50.6679 125.627 50.348 125.692 50.0196C125.407 50.3679 125.06 50.6352 124.651 50.8127C124.242 50.9929 123.837 51.0826 123.435 51.0826C123.004 51.0826 122.646 50.9999 122.361 50.837C122.076 50.6705 121.858 50.4516 121.709 50.1782C121.559 49.904 121.472 49.585 121.446 49.2195C121.42 48.8557 121.451 48.4737 121.539 48.0798C121.627 47.6641 121.757 47.2736 121.934 46.9089C122.109 46.5424 122.328 46.2278 122.591 45.9596C122.854 45.6941 123.163 45.4829 123.517 45.3303C123.871 45.1769 124.278 45.1001 124.739 45.1001C124.92 45.1001 125.102 45.1269 125.281 45.1769C125.46 45.2286 125.628 45.3018 125.785 45.3967C125.942 45.4907 126.081 45.6122 126.202 45.7579C126.322 45.9044 126.411 46.0683 126.47 46.251H126.491L126.701 45.2518ZM126.098 48.1124C126.171 47.7685 126.197 47.4478 126.175 47.1529C126.152 46.8563 126.084 46.6011 125.966 46.3855C125.849 46.17 125.685 46.0001 125.473 45.876C125.26 45.7519 125.001 45.6906 124.695 45.6906C124.418 45.6906 124.151 45.7398 123.895 45.8382C123.639 45.9364 123.404 46.0804 123.189 46.2709C122.974 46.4606 122.786 46.6925 122.631 46.9675C122.474 47.24 122.355 47.558 122.274 47.9142C122.186 48.2728 122.147 48.6066 122.154 48.9169C122.161 49.2272 122.222 49.5005 122.335 49.7334C122.448 49.9669 122.614 50.1515 122.833 50.2868C123.052 50.4213 123.333 50.4895 123.677 50.4895C123.977 50.4895 124.258 50.4248 124.521 50.2963C124.784 50.1705 125.021 49.9989 125.233 49.7834C125.445 49.5661 125.626 49.3152 125.776 49.0263C125.925 48.7384 126.033 48.4333 126.098 48.1124Z" fill="white"/>
<path d="M128.368 52.4621C128.448 52.4769 128.534 52.4907 128.625 52.5053C128.716 52.5217 128.809 52.5277 128.904 52.5277C129.086 52.5277 129.249 52.4691 129.391 52.3527C129.534 52.2371 129.66 52.0975 129.769 51.9345C129.878 51.7716 129.979 51.6001 130.07 51.4224C130.161 51.2456 130.251 51.0939 130.339 50.9706L129.353 45.252H130.086L130.876 50.1275L133.725 45.252H134.437L131.128 50.8517C130.916 51.2078 130.723 51.531 130.547 51.8139C130.372 52.0993 130.197 52.3415 130.022 52.5441C129.847 52.745 129.663 52.8984 129.474 53.0036C129.284 53.1088 129.076 53.1632 128.849 53.1632C128.733 53.1632 128.622 53.1554 128.515 53.1416C128.409 53.1269 128.316 53.108 128.236 53.0873L128.368 52.4621Z" fill="white"/>
<path d="M141.637 41.9438V53.9192H141.078V41.9438H141.637Z" fill="white"/>
<path d="M149.347 48.5721C149.302 48.9213 149.319 49.2197 149.392 49.4653C149.466 49.7093 149.584 49.9076 149.752 50.0611C149.921 50.2145 150.129 50.3275 150.378 50.3956C150.626 50.4655 150.898 50.4999 151.198 50.4999C151.549 50.4999 151.862 50.4568 152.136 50.3671C152.408 50.2801 152.644 50.1628 152.837 50.0136C153.032 49.8627 153.189 49.6886 153.309 49.4929C153.431 49.2946 153.512 49.0877 153.554 48.8687C153.622 48.5618 153.606 48.3118 153.507 48.1238C153.406 47.9316 153.257 47.7772 153.057 47.6574C152.855 47.5366 152.62 47.4401 152.351 47.3668C152.079 47.2944 151.802 47.2228 151.517 47.153C151.231 47.0831 150.954 47.0013 150.685 46.9073C150.413 46.8125 150.183 46.684 149.994 46.5245C149.804 46.3633 149.666 46.1564 149.582 45.9054C149.498 45.652 149.497 45.333 149.577 44.9459C149.636 44.676 149.748 44.4122 149.917 44.1578C150.084 43.901 150.301 43.6742 150.563 43.4785C150.828 43.2802 151.14 43.1233 151.499 43.0069C151.862 42.8896 152.261 42.8311 152.7 42.8311C153.147 42.8311 153.521 42.8931 153.823 43.0181C154.127 43.1422 154.365 43.313 154.541 43.526C154.717 43.7431 154.829 43.994 154.881 44.2777C154.932 44.5631 154.922 44.8666 154.847 45.1864H154.137C154.202 44.8873 154.204 44.6286 154.141 44.4096C154.08 44.1906 153.976 44.0121 153.83 43.8734C153.683 43.7346 153.5 43.6329 153.277 43.5664C153.054 43.5017 152.819 43.4689 152.568 43.4689C152.19 43.4689 151.859 43.5216 151.577 43.6277C151.299 43.7337 151.062 43.8699 150.873 44.0389C150.682 44.2061 150.537 44.3932 150.433 44.5984C150.332 44.801 150.276 45.0071 150.27 45.2114C150.255 45.4666 150.312 45.6719 150.438 45.8253C150.567 45.9796 150.737 46.1028 150.948 46.2029C151.161 46.3004 151.402 46.3814 151.674 46.4434C151.943 46.5055 152.218 46.5694 152.494 46.64C152.773 46.7099 153.037 46.7917 153.294 46.8874C153.55 46.9823 153.764 47.1107 153.94 47.2712C154.116 47.4316 154.241 47.6358 154.316 47.8901C154.395 48.1419 154.392 48.4566 154.312 48.8368C154.158 49.568 153.785 50.1336 153.196 50.5371C152.603 50.9379 151.851 51.138 150.937 51.138C150.53 51.138 150.161 51.0854 149.83 50.9784C149.503 50.8733 149.236 50.712 149.026 50.4964C148.817 50.281 148.677 50.0155 148.603 49.6973C148.53 49.3783 148.537 49.0049 148.627 48.5738H149.347V48.5721Z" fill="white"/>
<path d="M160.907 47.0395C160.883 46.6144 160.756 46.2842 160.523 46.048C160.289 45.8109 159.953 45.692 159.514 45.692C159.178 45.692 158.875 45.7609 158.605 45.8997C158.335 46.0386 158.098 46.2229 157.892 46.4533C157.689 46.6835 157.519 46.9412 157.39 47.23C157.257 47.5189 157.159 47.8103 157.095 48.1025C157.028 48.4025 157 48.6931 157.011 48.9785C157.022 49.2638 157.079 49.5191 157.186 49.7458C157.291 49.9726 157.451 50.1536 157.662 50.2881C157.874 50.4226 158.153 50.4907 158.496 50.4907C158.983 50.4907 159.406 50.3554 159.762 50.0864C160.115 49.8157 160.38 49.4423 160.555 48.9673H161.256C161.133 49.2802 160.98 49.5673 160.795 49.8269C160.614 50.0881 160.403 50.3105 160.162 50.4951C159.921 50.6821 159.65 50.8253 159.35 50.9278C159.051 51.0304 158.721 51.0822 158.363 51.0822C157.912 51.0822 157.536 51.0055 157.242 50.8519C156.945 50.6976 156.719 50.4882 156.562 50.2209C156.404 49.9544 156.314 49.6389 156.293 49.2734C156.271 48.9078 156.303 48.5172 156.39 48.1025C156.471 47.7059 156.607 47.3292 156.798 46.9688C156.987 46.6067 157.219 46.2868 157.498 46.0091C157.776 45.7308 158.097 45.5118 158.458 45.3462C158.818 45.1816 159.21 45.0996 159.635 45.0996C160.293 45.0996 160.791 45.2565 161.131 45.5704C161.47 45.8842 161.617 46.3748 161.575 47.0403L160.907 47.0395Z" fill="white"/>
<path d="M163.185 50.9273L164.39 45.2516H165.047L163.843 50.9273H163.185ZM164.619 44.0144L164.83 43.0376H165.551L165.342 44.0144H164.619Z" fill="white"/>
<path d="M167.425 48.2416C167.361 48.5494 167.338 48.8391 167.361 49.1142C167.382 49.3883 167.45 49.6262 167.569 49.8254C167.684 50.0272 167.851 50.1875 168.067 50.3091C168.282 50.4289 168.549 50.4893 168.861 50.4893C169.291 50.4893 169.685 50.3763 170.039 50.1496C170.392 49.9228 170.664 49.6004 170.856 49.1857H171.59C171.45 49.4556 171.292 49.7065 171.113 49.9357C170.933 50.1651 170.727 50.3651 170.492 50.5384C170.259 50.7091 169.997 50.8436 169.704 50.9376C169.412 51.0324 169.087 51.0808 168.728 51.0808C168.277 51.0808 167.901 51.004 167.606 50.8506C167.309 50.6962 167.083 50.4867 166.926 50.2194C166.768 49.9531 166.68 49.6401 166.659 49.2771C166.636 48.9158 166.668 48.527 166.757 48.1114C166.844 47.6941 166.987 47.3028 167.184 46.9381C167.38 46.5733 167.618 46.2534 167.9 45.9811C168.182 45.7069 168.5 45.4904 168.854 45.3335C169.209 45.1758 169.588 45.0981 169.999 45.0981C170.78 45.0981 171.337 45.368 171.67 45.9051C172.001 46.4414 172.054 47.2208 171.828 48.2424L167.425 48.2416ZM171.25 47.6951C171.309 47.4182 171.324 47.1561 171.3 46.9122C171.274 46.6681 171.208 46.4561 171.097 46.2777C170.988 46.0975 170.831 45.9551 170.626 45.8499C170.42 45.7439 170.174 45.6913 169.881 45.6913C169.588 45.6913 169.321 45.7457 169.075 45.8543C168.83 45.9655 168.609 46.1112 168.413 46.2931C168.215 46.4751 168.043 46.6872 167.897 46.9277C167.751 47.1683 167.634 47.4251 167.548 47.6951H171.25Z" fill="white"/>
<path d="M174.132 50.9272H173.474L174.68 45.2517H175.337L175.172 46.0415C175.495 45.7638 175.813 45.5371 176.13 45.3628C176.448 45.1853 176.805 45.0981 177.199 45.0981C177.549 45.0981 177.863 45.1594 178.135 45.2801C178.409 45.3999 178.617 45.6104 178.755 45.9095C178.849 46.1137 178.887 46.3225 178.869 46.538C178.851 46.7544 178.816 46.9794 178.767 47.2121L177.976 50.9264H177.321L178.108 47.2233C178.217 46.7113 178.188 46.3277 178.016 46.0724C177.845 45.8181 177.494 45.6905 176.969 45.6905C176.764 45.6905 176.571 45.7198 176.388 45.7818C176.205 45.8447 176.037 45.9267 175.879 46.0276C175.722 46.132 175.581 46.2482 175.457 46.3794C175.331 46.5112 175.23 46.6501 175.151 46.7949C175.05 46.9786 174.973 47.1527 174.921 47.3209C174.868 47.489 174.823 47.6708 174.778 47.8701L174.132 50.9272Z" fill="white"/>
<path d="M185.341 47.0395C185.32 46.6144 185.191 46.2842 184.959 46.048C184.725 45.8109 184.39 45.692 183.951 45.692C183.615 45.692 183.312 45.7609 183.041 45.8997C182.769 46.0386 182.532 46.2229 182.33 46.4533C182.124 46.6835 181.956 46.9412 181.824 47.23C181.693 47.5189 181.595 47.8103 181.529 48.1025C181.463 48.4025 181.436 48.6931 181.446 48.9785C181.457 49.2638 181.516 49.5191 181.621 49.7458C181.728 49.9726 181.886 50.1536 182.099 50.2881C182.309 50.4226 182.588 50.4907 182.931 50.4907C183.42 50.4907 183.842 50.3554 184.196 50.0864C184.551 49.8157 184.816 49.4423 184.992 48.9673H185.693C185.568 49.2802 185.414 49.5673 185.233 49.8269C185.05 50.0881 184.838 50.3105 184.596 50.4951C184.356 50.6821 184.087 50.8253 183.787 50.9278C183.489 51.0304 183.16 51.0822 182.801 51.0822C182.348 51.0822 181.973 51.0055 181.677 50.8519C181.382 50.6976 181.155 50.4882 180.998 50.2209C180.841 49.9544 180.751 49.6389 180.729 49.2734C180.706 48.9078 180.74 48.5172 180.828 48.1025C180.908 47.7059 181.043 47.3292 181.233 46.9688C181.424 46.6067 181.658 46.2868 181.934 46.0091C182.213 45.7308 182.532 45.5118 182.893 45.3462C183.256 45.1806 183.649 45.0996 184.072 45.0996C184.729 45.0996 185.228 45.2565 185.567 45.5704C185.907 45.8842 186.054 46.3748 186.011 47.0403L185.341 47.0395Z" fill="white"/>
<path d="M188.496 48.2416C188.431 48.5494 188.407 48.8391 188.431 49.1142C188.452 49.3883 188.522 49.6262 188.639 49.8254C188.756 50.0272 188.922 50.1875 189.137 50.3091C189.353 50.4289 189.618 50.4893 189.932 50.4893C190.362 50.4893 190.754 50.3763 191.11 50.1496C191.462 49.9228 191.736 49.6004 191.927 49.1857H192.66C192.521 49.4556 192.361 49.7065 192.183 49.9357C192.002 50.166 191.798 50.3651 191.564 50.5384C191.33 50.7091 191.067 50.8436 190.774 50.9376C190.484 51.0324 190.157 51.0808 189.8 51.0808C189.348 51.0808 188.972 51.004 188.676 50.8506C188.381 50.6962 188.154 50.4867 187.997 50.2194C187.84 49.9531 187.752 49.6401 187.728 49.2771C187.707 48.9158 187.739 48.527 187.827 48.1114C187.914 47.6941 188.057 47.3028 188.253 46.9381C188.451 46.5733 188.689 46.2534 188.972 45.9811C189.252 45.7069 189.57 45.4904 189.925 45.3335C190.279 45.1758 190.66 45.0981 191.069 45.0981C191.851 45.0981 192.409 45.368 192.739 45.9051C193.074 46.4414 193.125 47.2208 192.899 48.2424L188.496 48.2416ZM192.32 47.6951C192.377 47.4182 192.395 47.1561 192.368 46.9122C192.343 46.6681 192.276 46.4561 192.168 46.2777C192.056 46.0975 191.899 45.9551 191.694 45.8499C191.491 45.7439 191.242 45.6913 190.952 45.6913C190.659 45.6913 190.39 45.7457 190.145 45.8543C189.901 45.9655 189.68 46.1112 189.481 46.2931C189.284 46.4751 189.114 46.6872 188.968 46.9277C188.821 47.1683 188.703 47.4251 188.616 47.6951H192.32Z" fill="white"/>
<path d="M201.028 41.9438V53.9192H200.47V41.9438H201.028Z" fill="white"/>
<path d="M207.932 50.9279L209.608 43.0391H214.856L214.725 43.6744H210.222L209.608 46.5248H213.672L213.542 47.1585H209.476L208.808 50.2924H213.422L213.29 50.9279H207.932Z" fill="white"/>
<path d="M216.062 45.252H216.775L217.585 50.1171L220.456 45.252H221.169L217.76 50.9276H217.027L216.062 45.252Z" fill="white"/>
<path d="M221.967 50.9273L223.171 45.2516H223.829L222.624 50.9273H221.967ZM223.402 44.0144L223.611 43.0376H224.334L224.126 44.0144H223.402Z" fill="white"/>
<path d="M231.293 43.0376H231.95L230.273 50.9264H229.618L229.823 49.9306H229.802C229.671 50.1194 229.512 50.2859 229.332 50.4281C229.15 50.5711 228.959 50.6902 228.761 50.7851C228.565 50.8789 228.365 50.9514 228.166 51.004C227.964 51.0541 227.772 51.0807 227.59 51.0807C227.131 51.0807 226.754 51.004 226.46 50.8505C226.168 50.6962 225.948 50.4867 225.804 50.2195C225.657 49.953 225.577 49.6375 225.556 49.272C225.539 48.9063 225.574 48.5158 225.662 48.1011C225.749 47.7045 225.881 47.326 226.056 46.9613C226.23 46.5958 226.451 46.2767 226.719 46.0017C226.985 45.7275 227.296 45.5102 227.65 45.3448C228.004 45.18 228.397 45.0982 228.827 45.0982C229.231 45.0982 229.596 45.1879 229.93 45.368C230.261 45.5465 230.493 45.812 230.625 46.1621L231.293 43.0376ZM230.219 48.0675C230.284 47.7458 230.304 47.4407 230.277 47.1518C230.252 46.8631 230.181 46.6113 230.064 46.3957C229.948 46.1802 229.786 46.0086 229.577 45.8801C229.368 45.7535 229.116 45.6896 228.816 45.6896C228.473 45.6896 228.162 45.756 227.884 45.8923C227.606 46.025 227.362 46.2112 227.15 46.4449C226.937 46.6786 226.762 46.9519 226.624 47.2622C226.486 47.5717 226.387 47.9046 226.329 48.2641C226.256 48.6201 226.238 48.9383 226.279 49.2116C226.318 49.4858 226.406 49.7176 226.537 49.9065C226.668 50.0979 226.841 50.2427 227.056 50.3409C227.272 50.4376 227.519 50.4885 227.796 50.4885C228.103 50.4885 228.39 50.4254 228.656 50.3031C228.924 50.1772 229.161 50.0082 229.367 49.7927C229.575 49.5763 229.752 49.321 229.893 49.0254C230.038 48.7305 230.146 48.4123 230.219 48.0675Z" fill="white"/>
<path d="M233.834 48.2416C233.77 48.5494 233.747 48.8391 233.77 49.1142C233.791 49.3883 233.86 49.6262 233.978 49.8254C234.094 50.0272 234.261 50.1875 234.477 50.3091C234.692 50.4289 234.957 50.4893 235.271 50.4893C235.702 50.4893 236.093 50.3763 236.449 50.1496C236.802 49.9228 237.075 49.6004 237.266 49.1857H237.999C237.86 49.4556 237.7 49.7065 237.522 49.9357C237.342 50.166 237.137 50.3651 236.903 50.5384C236.669 50.7091 236.406 50.8436 236.113 50.9376C235.822 51.0324 235.495 51.0808 235.139 51.0808C234.687 51.0808 234.313 51.004 234.016 50.8506C233.72 50.6962 233.493 50.4867 233.336 50.2194C233.179 49.9531 233.09 49.6401 233.067 49.2771C233.045 48.9158 233.078 48.527 233.167 48.1114C233.255 47.6941 233.396 47.3028 233.593 46.9381C233.79 46.5733 234.03 46.2534 234.311 45.9811C234.591 45.7069 234.911 45.4904 235.264 45.3335C235.618 45.1758 236.001 45.0981 236.409 45.0981C237.192 45.0981 237.748 45.368 238.08 45.9051C238.413 46.4414 238.464 47.2208 238.238 48.2424L233.834 48.2416ZM237.658 47.6951C237.716 47.4182 237.734 47.1561 237.707 46.9122C237.682 46.6681 237.615 46.4561 237.507 46.2777C237.396 46.0975 237.239 45.9551 237.035 45.8499C236.83 45.7439 236.581 45.6913 236.291 45.6913C235.997 45.6913 235.73 45.7457 235.484 45.8543C235.239 45.9655 235.019 46.1112 234.82 46.2931C234.624 46.4751 234.453 46.6872 234.307 46.9277C234.16 47.1683 234.042 47.4251 233.955 47.6951H237.658Z" fill="white"/>
<path d="M240.539 50.9272H239.882L241.086 45.2517H241.744L241.579 46.0415C241.901 45.7638 242.22 45.5371 242.539 45.3628C242.855 45.1853 243.211 45.0981 243.607 45.0981C243.955 45.0981 244.269 45.1594 244.543 45.2801C244.815 45.3999 245.023 45.6104 245.163 45.9095C245.256 46.1137 245.296 46.3225 245.279 46.538C245.259 46.7544 245.224 46.9794 245.172 47.2121L244.385 50.9264H243.727L244.515 47.2233C244.626 46.7113 244.594 46.3277 244.423 46.0724C244.252 45.8181 243.902 45.6905 243.378 45.6905C243.173 45.6905 242.978 45.7198 242.796 45.7818C242.611 45.8447 242.443 45.9267 242.286 46.0276C242.128 46.132 241.988 46.2482 241.865 46.3794C241.741 46.5112 241.638 46.6501 241.559 46.7949C241.456 46.9786 241.378 47.1527 241.328 47.3209C241.276 47.489 241.229 47.6708 241.187 47.8701L240.539 50.9272Z" fill="white"/>
<path d="M251.749 47.0395C251.725 46.6144 251.599 46.2842 251.365 46.048C251.131 45.8109 250.795 45.692 250.356 45.692C250.02 45.692 249.717 45.7609 249.448 45.8997C249.176 46.0386 248.938 46.2229 248.735 46.4533C248.531 46.6835 248.361 46.9412 248.232 47.23C248.1 47.5189 248.002 47.8103 247.935 48.1025C247.869 48.4025 247.841 48.6931 247.854 48.9785C247.864 49.2638 247.921 49.5191 248.029 49.7458C248.133 49.9726 248.292 50.1536 248.504 50.2881C248.717 50.4226 248.994 50.4907 249.338 50.4907C249.825 50.4907 250.248 50.3554 250.604 50.0864C250.956 49.8157 251.223 49.4423 251.397 48.9673H252.098C251.974 49.2802 251.822 49.5673 251.638 49.8269C251.456 50.0881 251.243 50.3105 251.003 50.4951C250.764 50.6821 250.491 50.8253 250.192 50.9278C249.892 51.0304 249.564 51.0822 249.206 51.0822C248.752 51.0822 248.378 51.0055 248.084 50.8519C247.787 50.6976 247.561 50.4882 247.404 50.2209C247.246 49.9544 247.156 49.6389 247.134 49.2734C247.114 48.9078 247.145 48.5172 247.232 48.1025C247.313 47.7059 247.448 47.3292 247.64 46.9688C247.829 46.6067 248.061 46.2868 248.34 46.0091C248.619 45.7308 248.937 45.5118 249.3 45.3462C249.661 45.1816 250.052 45.0996 250.477 45.0996C251.135 45.0996 251.631 45.2565 251.971 45.5704C252.312 45.8842 252.458 46.3748 252.417 47.0403L251.749 47.0395Z" fill="white"/>
<path d="M254.902 48.2416C254.837 48.5494 254.815 48.8391 254.837 49.1142C254.858 49.3883 254.927 49.6262 255.045 49.8254C255.161 50.0272 255.328 50.1875 255.543 50.3091C255.758 50.4289 256.024 50.4893 256.338 50.4893C256.768 50.4893 257.161 50.3763 257.515 50.1496C257.869 49.9228 258.141 49.6004 258.331 49.1857H259.067C258.928 49.4556 258.768 49.7065 258.588 49.9357C258.41 50.166 258.202 50.3651 257.968 50.5384C257.735 50.7091 257.474 50.8436 257.181 50.9376C256.888 51.0324 256.563 51.0808 256.206 51.0808C255.752 51.0808 255.378 51.004 255.081 50.8506C254.785 50.6962 254.56 50.4867 254.401 50.2194C254.245 49.9531 254.156 49.6401 254.134 49.2771C254.113 48.9158 254.145 48.527 254.232 48.1114C254.32 47.6941 254.462 47.3028 254.659 46.9381C254.857 46.5733 255.095 46.2534 255.377 45.9811C255.66 45.7069 255.976 45.4904 256.331 45.3335C256.684 45.1758 257.066 45.0981 257.475 45.0981C258.256 45.0981 258.813 45.368 259.147 45.9051C259.479 46.4414 259.531 47.2208 259.306 48.2424L254.902 48.2416ZM258.726 47.6951C258.784 47.4182 258.801 47.1561 258.775 46.9122C258.75 46.6681 258.684 46.4561 258.574 46.2777C258.464 46.0975 258.308 45.9551 258.103 45.8499C257.897 45.7439 257.65 45.6913 257.356 45.6913C257.065 45.6913 256.799 45.7457 256.552 45.8543C256.307 45.9655 256.085 46.1112 255.889 46.2931C255.69 46.4751 255.519 46.6872 255.374 46.9277C255.227 47.1683 255.11 47.4251 255.024 47.6951H258.726Z" fill="white"/>
</g>
</g>
<defs>
<clipPath id="clip0_113_229">
<rect width="276" height="56.0406" fill="white" transform="translate(0 0.979492)"/>
</clipPath>
</defs>
</svg>
