<svg width="50" height="50" viewBox="0 0 50 50" fill="none" xmlns="http://www.w3.org/2000/svg">
<g clip-path="url(#clip0_279_272)">
<mask id="mask0_279_272" style="mask-type:luminance" maskUnits="userSpaceOnUse" x="0" y="0" width="50" height="50">
<path d="M50 0.0253906H0V49.9746H50V0.0253906Z" fill="white"/>
</mask>
<g mask="url(#mask0_279_272)">
<mask id="mask1_279_272" style="mask-type:luminance" maskUnits="userSpaceOnUse" x="0" y="0" width="251" height="50">
<path d="M250.922 0.0253906H0V49.9746H250.922V0.0253906Z" fill="white"/>
</mask>
<g mask="url(#mask1_279_272)">
<path fill-rule="evenodd" clip-rule="evenodd" d="M31.5248 25.5025C31.4535 25.2296 31.2159 24.8516 31.1132 24.7294C31.0309 24.6502 30.9477 24.5157 30.9007 24.3452L30.9101 24.1331L30.9917 22.5094L30.9956 22.4856C31.0293 22.2458 31.1979 21.0193 31.1979 20.3769C31.1979 19.7422 30.7863 18.8992 30.6991 18.7286C30.8482 17.4999 30.7612 15.5295 30.7518 15.3704C30.7689 15.2636 30.885 14.4314 30.885 14.1056C30.885 13.7836 30.885 13.2442 30.4004 12.5142C29.8892 11.7426 29.1474 11.6773 28.3749 11.6773C28.3727 11.6773 28.3703 11.6773 28.3687 11.6773C28.2433 11.6596 27.2898 11.197 26.6162 10.8589L26.6421 10.0151C26.7912 9.81536 26.8005 9.73698 26.8036 9.71085C26.8115 9.6486 26.857 9.32201 26.904 8.97621L26.9047 8.9693C27.1156 8.87093 27.2733 8.60198 27.3071 8.45981C27.3133 8.43215 27.322 8.40218 27.3289 8.37068C27.3995 8.09634 27.4788 7.78357 27.2906 7.68752C27.274 7.67907 27.2569 7.67215 27.2396 7.66832C27.2929 7.41319 27.3204 7.06354 27.2161 6.42804C27.0952 5.69186 26.1434 5.43213 25.3671 5.43213H25.3443C24.5532 5.43213 23.5981 5.6934 23.5157 6.43341C23.4546 6.98594 23.4451 7.39321 23.4859 7.66908C23.4702 7.67369 23.4531 7.67984 23.4381 7.68752C23.2492 7.78357 23.3283 8.09634 23.3989 8.37068C23.4061 8.40218 23.4145 8.43215 23.4208 8.45981C23.4578 8.61965 23.6192 8.8671 23.8129 8.96469L23.8145 8.98082C23.8631 9.32432 23.9078 9.6486 23.9148 9.71085C23.9203 9.75696 23.9424 9.81075 23.9839 9.88068L24.0309 10.8604C23.3574 11.1985 22.4046 11.6604 22.2854 11.6781C21.5044 11.6781 20.7612 11.7418 20.2475 12.5149C19.7622 13.2457 19.7622 13.7844 19.7622 14.1063C19.7622 14.4314 19.879 15.2644 19.8946 15.3713C19.8868 15.5302 19.7997 17.5006 19.9479 18.7294C19.8601 18.8992 19.4492 19.7422 19.4492 20.3777C19.4492 21.0202 19.6185 22.2473 19.6516 22.4863L19.6547 22.5102L19.744 24.2684C19.7025 24.4758 19.6069 24.6387 19.5121 24.7309C19.4077 24.8531 19.1717 25.2313 19.1011 25.504C18.9999 25.9359 18.5726 26.609 18.5962 26.7166C18.6722 26.8572 18.8007 26.9087 18.9169 26.8411C19.0439 26.7566 19.3395 26.4515 19.3786 26.3002C19.435 26.4869 19.6797 27.8394 19.7746 28.0038C19.8084 28.1567 19.9112 28.2943 20.0287 28.2973C20.1369 28.2597 20.2028 28.2097 20.2028 28.2097C20.2357 28.3596 20.2937 28.5463 20.5046 28.5579C20.6074 28.5416 20.6497 28.4695 20.6419 28.3711C20.7227 28.3972 20.9233 28.3419 20.979 28.2005C21.0252 28.0775 21.0568 27.9208 21.07 27.8416C21.0754 27.8124 21.0685 27.8201 21.07 27.8416C21.0732 27.8723 21.1069 27.9108 21.1845 27.9147C21.2629 27.9039 21.3233 27.8577 21.3499 27.5719C21.3681 27.3898 21.3641 26.8496 21.3579 26.8219C21.3515 26.7943 21.3226 26.4016 21.3116 26.2179C21.3664 26.0066 21.3358 25.3419 21.3084 25.2204C21.2778 25.0837 21.2261 24.9799 21.0488 24.704C21.0653 24.4682 21.0707 24.273 21.0739 24.1977C21.0794 24.1278 21.0849 24.0532 21.0874 23.994C21.1038 23.6875 21.1272 23.37 21.1304 23.3062C21.1602 23.2087 21.2198 23.0635 21.2903 22.8951C21.5029 22.3879 21.8259 21.6187 21.8119 20.8933C21.8024 20.3546 21.7875 19.9043 21.7788 19.6853C21.7734 19.5286 21.7672 19.4026 21.7639 19.3164C21.7601 19.2673 21.7592 19.2265 21.7537 19.1943L21.757 19.172C21.8102 18.6933 21.9122 17.765 21.9538 17.1041C22.0981 17.5075 22.3184 18.0408 22.6117 18.5257C22.6109 19.2181 22.5896 19.6569 22.5732 20.0096C22.5615 20.2286 22.5536 20.4053 22.5521 20.586C22.4548 20.7312 22.0511 21.4028 22.0464 22.3988C21.8855 22.9751 21.7217 23.6159 21.713 24.0133V24.0186V24.0225C21.717 24.0647 22.0126 28.2405 22.3333 29.3547C22.3913 29.5537 22.4588 29.772 22.5293 30.0018C22.8108 30.9192 23.1614 32.0612 23.1338 32.7451C23.1237 33.0263 23.0405 33.2677 22.9456 33.5466C22.7551 34.0991 22.5403 34.7277 22.7975 35.9165C23.0092 36.8917 23.1527 37.3212 23.2907 37.7386C23.4043 38.0851 23.5134 38.4116 23.6584 39.0295C23.7221 39.2992 23.7738 39.5197 23.8176 39.7042C23.9871 40.4166 24.0239 40.5694 24.0279 40.8245C23.9713 40.8623 23.8889 40.9283 23.8349 41.026C23.7807 41.1227 23.7785 41.2718 23.8341 41.3786C23.7251 41.4778 23.602 41.5754 23.5298 41.6222C23.4327 41.6899 23.2892 41.8381 23.2515 41.8797C23.1895 41.9265 23.1644 41.9996 23.1527 42.0542C23.0916 42.0933 23.0547 42.1502 23.0531 42.2194C23.0507 42.3154 23.1174 42.4084 23.2115 42.446C23.2688 42.4667 23.3299 42.4706 23.3763 42.4621C23.4123 42.4821 23.464 42.4975 23.5377 42.5037C23.6208 42.5121 23.6796 42.5021 23.7251 42.4875C23.7581 42.506 23.8043 42.5167 23.8647 42.5167C23.958 42.5167 24.0246 42.5013 24.0725 42.4784C24.1148 42.5113 24.1721 42.5367 24.2513 42.5367H24.2725C24.4419 42.5367 24.5523 42.4906 24.6191 42.4414C24.6967 42.4937 24.8268 42.5421 25.0527 42.5213C25.1703 42.5106 25.2604 42.4829 25.3225 42.4414C25.3851 42.4837 25.4744 42.5113 25.5937 42.5213C25.8187 42.5413 25.9488 42.4937 26.0274 42.4414C26.0947 42.4906 26.2029 42.5367 26.3732 42.5367H26.3928C26.4712 42.5367 26.5307 42.5113 26.5723 42.4784C26.6201 42.5013 26.6875 42.5167 26.777 42.5167H26.7864C26.8443 42.5167 26.8883 42.506 26.9212 42.4875C26.9667 42.5028 27.0255 42.5113 27.1064 42.5037C27.1792 42.4975 27.2318 42.4829 27.2671 42.4621C27.3133 42.4714 27.3776 42.4675 27.4341 42.446C27.5274 42.4084 27.5947 42.3154 27.5925 42.2194C27.59 42.1502 27.5532 42.0933 27.4913 42.0542C27.4811 42.0004 27.4552 41.9265 27.3933 41.8797C27.3565 41.8381 27.2129 41.6899 27.1156 41.6222C27.0443 41.5747 26.9212 41.4778 26.8123 41.3786C26.868 41.2718 26.8663 41.1227 26.8115 41.026C26.7566 40.9283 26.675 40.8623 26.6178 40.8245C26.6225 40.5694 26.6586 40.4166 26.8287 39.7042C26.8727 39.5197 26.9251 39.2992 26.9895 39.0295C27.133 38.4116 27.242 38.0851 27.3573 37.7386C27.4961 37.3212 27.638 36.8909 27.8481 35.9165C28.1061 34.7277 27.8913 34.0991 27.7014 33.5466C27.6066 33.2677 27.5234 33.0263 27.5125 32.7451C27.4858 32.0604 27.8355 30.9192 28.1178 30.0018C28.1884 29.772 28.255 29.5537 28.3123 29.3547C28.6354 28.2405 28.9293 24.064 28.9318 24.0225V24.0186V24.0133C28.9231 23.6159 28.76 22.9751 28.5992 22.3988C28.5954 21.4035 28.1907 20.732 28.0935 20.586C28.0927 20.4053 28.084 20.2286 28.0731 20.0096C28.0558 19.6569 28.034 19.2181 28.0331 18.5257C28.3279 18.0408 28.5475 17.5075 28.6909 17.1041C28.7334 17.765 28.8345 18.6933 28.8886 19.172L28.8911 19.1943C28.8855 19.2265 28.8846 19.2673 28.8816 19.3164C28.8784 19.4026 28.8729 19.5286 28.8659 19.6853C28.8596 19.9043 28.8431 20.3546 28.8337 20.8933C28.8189 21.6187 29.1419 22.3879 29.3544 22.8951C29.4241 23.0626 29.4853 23.2087 29.5151 23.3062C29.5183 23.3815 29.5371 23.7842 29.5457 24.1215C29.5489 24.2199 29.5512 24.3897 29.5512 24.3897L29.5551 24.3921C29.5591 24.4804 29.5638 24.5873 29.5724 24.704C29.3943 24.9799 29.3419 25.0837 29.3137 25.2204C29.2862 25.3419 29.2548 26.0066 29.3097 26.2179C29.298 26.4016 29.2704 26.7943 29.2642 26.8219C29.258 26.8487 29.254 27.3891 29.2713 27.5719C29.2988 27.8577 29.3599 27.9047 29.4375 27.9147C29.5151 27.9108 29.5489 27.8723 29.5512 27.8416C29.5529 27.8201 29.5457 27.8124 29.5512 27.8416C29.566 27.9208 29.5967 28.0775 29.6422 28.2005C29.6986 28.3419 29.9009 28.3972 29.9793 28.3711C29.9716 28.4695 30.0131 28.5425 30.1166 28.5579C30.3298 28.5463 30.3871 28.3596 30.4193 28.2097C30.4193 28.2097 30.4859 28.2597 30.5934 28.2973C30.7102 28.2943 30.8137 28.1567 30.8466 28.0038C30.9415 27.8394 31.1853 26.4869 31.2433 26.3002C31.2826 26.4515 31.579 26.7566 31.7061 26.8411C31.8214 26.9087 31.9499 26.8572 32.0259 26.7166C32.0526 26.6082 31.6259 25.9343 31.5248 25.5025ZM25.2621 29.5223C25.2621 29.5169 25.2872 29.2141 25.3192 28.8629L25.3867 29.5199C25.4111 29.9787 25.3718 30.5527 25.324 31.0653C25.2777 30.5527 25.2385 29.9787 25.2621 29.5223ZM25.4463 41.6661C25.4573 41.7099 25.3945 41.829 25.3318 41.9089C25.3294 41.9104 25.3271 41.9127 25.3232 41.9158C25.3207 41.9127 25.3185 41.9104 25.3169 41.9089C25.2534 41.829 25.1915 41.7091 25.2024 41.6661C25.3327 41.1605 25.2243 40.8761 25.2213 40.8684C25.1397 40.6264 25.0008 38.4978 25.1162 37.9352L25.1428 37.8061C25.2188 37.4319 25.2894 37.0938 25.3232 36.6673C25.3593 37.0946 25.4282 37.4319 25.506 37.8061L25.5309 37.9352C25.6463 38.4978 25.5082 40.6264 25.4282 40.8654C25.4244 40.8754 25.3161 41.1597 25.4463 41.6661Z" fill="#388DCA"/>
<path d="M50.2391 49.4545C42.6527 47.3289 36.9082 37.3659 36.9082 25.3843C36.9082 13.4026 42.6527 3.44037 50.2391 1.31331V1.23877C40.3427 3.20217 32.8032 13.2596 32.8032 25.3843C32.8032 37.5073 40.3418 47.5647 50.2384 49.5281L50.2391 49.4545Z" fill="white"/>
<path d="M0.385254 1.31254C7.97173 3.44037 13.7163 13.4026 13.7163 25.3835C13.7163 37.3659 7.97096 47.3289 0.385254 49.4545V49.5281C10.2818 47.5647 17.8205 37.5073 17.8205 25.3835C17.8205 13.2596 10.2818 3.20217 0.385254 1.23877V1.31254Z" fill="white"/>
</g>
</g>
</g>
<defs>
<clipPath id="clip0_279_272">
<rect width="50" height="50" fill="white"/>
</clipPath>
</defs>
</svg>
