<svg xmlns="http://www.w3.org/2000/svg" width="70" height="70" viewBox="0 0 70 70" fill="none">
  <path fill-rule="evenodd" clip-rule="evenodd" d="M43.5985 35.1337C43.4997 34.7484 43.171 34.2145 43.0288 34.0419C42.9149 33.9301 42.7997 33.7401 42.7347 33.4992L42.7477 33.1998L42.8606 30.9066L42.8661 30.8729C42.9126 30.5343 43.1459 28.8021 43.1459 27.8949C43.1459 26.9985 42.5763 25.8079 42.4557 25.567C42.662 23.8317 42.5416 21.0489 42.5285 20.8242C42.5523 20.6735 42.713 19.498 42.713 19.0379C42.713 18.5833 42.713 17.8214 42.0423 16.7904C41.3347 15.7007 40.308 15.6085 39.2389 15.6085C39.2357 15.6085 39.2326 15.6085 39.2303 15.6085C39.0567 15.5835 37.7371 14.9302 36.8047 14.4527L36.8405 13.261C37.0468 12.9789 37.0598 12.8682 37.0641 12.8313C37.075 12.7434 37.138 12.2821 37.203 11.7937L37.2041 11.784C37.496 11.6451 37.7141 11.2652 37.7609 11.0644C37.7695 11.0254 37.7815 10.983 37.7912 10.9385C37.8889 10.5511 37.9986 10.1094 37.7381 9.97373C37.7152 9.96179 37.6914 9.95202 37.6676 9.94661C37.7413 9.58629 37.7794 9.09249 37.6349 8.19497C37.4678 7.15528 36.1504 6.78845 35.0758 6.78845H35.0444C33.9494 6.78845 32.6275 7.15744 32.5135 8.20256C32.4289 8.98288 32.4158 9.55807 32.4723 9.94768C32.4506 9.95419 32.4268 9.96288 32.4061 9.97373C32.1446 10.1094 32.2541 10.5511 32.3518 10.9385C32.3617 10.983 32.3735 11.0254 32.3821 11.0644C32.4333 11.2902 32.6567 11.6396 32.9248 11.7775L32.9271 11.8002C32.9943 12.2854 33.0562 12.7434 33.0659 12.8313C33.0735 12.8964 33.104 12.9724 33.1615 13.0711L33.2265 14.4548C32.2943 14.9324 30.9757 15.5846 30.8108 15.6096C29.7297 15.6096 28.701 15.6996 27.9901 16.7915C27.3184 17.8235 27.3184 18.5843 27.3184 19.039C27.3184 19.498 27.4801 20.6745 27.5018 20.8255C27.4909 21.05 27.3704 23.8327 27.5755 25.5681C27.454 25.8079 26.8853 26.9985 26.8853 27.896C26.8853 28.8034 27.1196 30.5364 27.1653 30.874L27.1697 30.9076L27.2934 33.3908C27.2359 33.6837 27.1034 33.9138 26.9722 34.044C26.8278 34.2166 26.5012 34.7507 26.4035 35.1358C26.2634 35.7458 25.6719 36.6964 25.7045 36.8484C25.8098 37.047 25.9878 37.1197 26.1484 37.0243C26.3243 36.9049 26.7334 36.474 26.7876 36.2603C26.8657 36.5239 27.2043 38.4341 27.3357 38.6663C27.3824 38.8822 27.5246 39.0765 27.6873 39.0808C27.8371 39.0277 27.9282 38.9571 27.9282 38.9571C27.9739 39.1688 28.0542 39.4324 28.346 39.4488C28.4882 39.4259 28.5469 39.324 28.536 39.185C28.6478 39.2218 28.9255 39.1437 29.0026 38.9441C29.0666 38.7704 29.1102 38.549 29.1285 38.4372C29.1264 38.4069 29.1361 38.396 29.1285 38.4372C29.1329 38.4806 29.1795 38.5349 29.2871 38.5404C29.3955 38.5252 29.4791 38.46 29.516 38.0563C29.541 37.7992 29.5356 37.0362 29.5269 36.9971C29.5181 36.9581 29.4781 36.4035 29.4629 36.1441C29.5387 35.8457 29.4964 34.9069 29.4585 34.7353C29.4162 34.5422 29.3446 34.3956 29.0992 34.0061C29.122 33.6729 29.1296 33.3973 29.134 33.2909C29.1416 33.1922 29.1492 33.0869 29.1525 33.0033C29.1753 32.5703 29.2077 32.122 29.2121 32.0319C29.2534 31.8942 29.3359 31.6891 29.4334 31.4514C29.7276 30.735 30.1749 29.6486 30.1553 28.6242C30.1422 27.8634 30.1216 27.2274 30.1096 26.9181C30.102 26.6968 30.0934 26.5188 30.089 26.3971C30.0837 26.3278 30.0824 26.2702 30.0749 26.2247L30.0793 26.1933C30.153 25.5171 30.2941 24.2061 30.3517 23.2728C30.5514 23.8424 30.8563 24.5956 31.2623 25.2804C31.2612 26.2583 31.2318 26.8781 31.209 27.3761C31.1928 27.6854 31.1819 27.935 31.1797 28.1902C31.0452 28.3953 30.4863 29.3437 30.4798 30.7503C30.2572 31.5642 30.0304 32.4693 30.0184 33.0305V33.038V33.0435C30.0239 33.1031 30.433 39.0005 30.8769 40.5742C30.9572 40.8553 31.0506 41.1635 31.1483 41.488C31.5379 42.7837 32.0231 44.3965 31.985 45.3624C31.9709 45.7596 31.8559 46.1005 31.7245 46.4943C31.4608 47.2747 31.1635 48.1625 31.5194 49.8414C31.8125 51.2185 32.0111 51.8252 32.2021 52.4146C32.3594 52.904 32.5104 53.3652 32.711 54.2378C32.7991 54.6187 32.8707 54.9302 32.9313 55.1906C33.1659 56.1968 33.2168 56.4126 33.2223 56.7729C33.144 56.8262 33.0301 56.9195 32.9553 57.0574C32.8804 57.1941 32.8772 57.4046 32.9542 57.5554C32.8033 57.6955 32.6329 57.8334 32.5331 57.8995C32.3985 57.9951 32.2 58.2044 32.1478 58.2631C32.0621 58.3293 32.0273 58.4324 32.0111 58.5095C31.9264 58.5647 31.8755 58.6451 31.8732 58.7428C31.87 58.8785 31.9622 59.0098 32.0924 59.0629C32.1717 59.0922 32.2564 59.0977 32.3204 59.0857C32.3703 59.1139 32.4419 59.1356 32.5439 59.1444C32.659 59.1562 32.7403 59.1421 32.8033 59.1215C32.849 59.1476 32.913 59.1627 32.9966 59.1627C33.1257 59.1627 33.2179 59.1411 33.284 59.1086C33.3428 59.1552 33.4219 59.191 33.5315 59.191H33.5609C33.7953 59.191 33.9482 59.1259 34.0406 59.0564C34.148 59.1303 34.3281 59.1985 34.6408 59.1693C34.8035 59.1541 34.9282 59.115 35.0141 59.0564C35.1009 59.1162 35.2245 59.1552 35.3896 59.1693C35.701 59.1975 35.8811 59.1303 35.9897 59.0564C36.083 59.1259 36.2327 59.191 36.4683 59.191H36.4955C36.604 59.191 36.6865 59.1552 36.744 59.1086C36.8101 59.1411 36.9034 59.1627 37.0272 59.1627H37.0403C37.1205 59.1627 37.1814 59.1476 37.2269 59.1215C37.2898 59.1432 37.3713 59.1552 37.4831 59.1444C37.584 59.1356 37.6566 59.115 37.7055 59.0857C37.7695 59.0987 37.8586 59.0933 37.9367 59.0629C38.0658 59.0098 38.1591 58.8785 38.1559 58.7428C38.1526 58.6451 38.1016 58.5647 38.0159 58.5095C38.0018 58.4335 37.966 58.3293 37.8803 58.2631C37.8293 58.2044 37.6305 57.9951 37.496 57.8995C37.3972 57.8323 37.2269 57.6955 37.0761 57.5554C37.1531 57.4046 37.1508 57.1941 37.075 57.0574C36.999 56.9195 36.8861 56.8262 36.8069 56.7729C36.8135 56.4126 36.8634 56.1968 37.0988 55.1906C37.1597 54.9302 37.2323 54.6187 37.3214 54.2378C37.52 53.3652 37.6707 52.904 37.8303 52.4146C38.0224 51.8252 38.2189 51.2175 38.5097 49.8414C38.8668 48.1625 38.5695 47.2747 38.3067 46.4943C38.1755 46.1005 38.0603 45.7596 38.0452 45.3624C38.0083 44.3955 38.4924 42.7837 38.883 41.488C38.9807 41.1635 39.073 40.8553 39.1521 40.5742C39.5994 39.0005 40.0062 33.1021 40.0096 33.0435V33.038V33.0305C39.9976 32.4693 39.7719 31.5642 39.5493 30.7503C39.544 29.3448 38.9839 28.3963 38.8493 28.1902C38.8483 27.935 38.8363 27.6854 38.8211 27.3761C38.7973 26.8781 38.767 26.2583 38.7657 25.2804C39.1738 24.5956 39.4777 23.8424 39.6763 23.2728C39.735 24.2061 39.875 25.5171 39.9498 26.1933L39.9532 26.2247C39.9456 26.2702 39.9443 26.3278 39.9401 26.3971C39.9357 26.5188 39.9281 26.6968 39.9184 26.9181C39.9098 27.2274 39.8869 27.8634 39.8738 28.6242C39.8533 29.6486 40.3004 30.735 40.5946 31.4514C40.691 31.6879 40.7757 31.8942 40.817 32.0319C40.8214 32.1383 40.8473 32.707 40.8593 33.1834C40.8637 33.3223 40.8669 33.5622 40.8669 33.5622L40.8723 33.5655C40.8778 33.6902 40.8843 33.8412 40.8961 34.0061C40.6498 34.3956 40.5771 34.5422 40.5381 34.7353C40.5 34.9069 40.4567 35.8457 40.5327 36.1441C40.5164 36.4035 40.4784 36.9581 40.4697 36.9971C40.4611 37.035 40.4556 37.7981 40.4794 38.0563C40.5175 38.46 40.6022 38.5263 40.7096 38.5404C40.817 38.5349 40.8637 38.4806 40.8669 38.4372C40.8593 38.396 40.8692 38.4069 40.8669 38.4372C40.8875 38.549 40.9298 38.7704 40.9928 38.9441C41.0709 39.1437 41.351 39.2218 41.4594 39.185C41.4487 39.324 41.5062 39.4271 41.6494 39.4488C41.9446 39.4324 42.0238 39.1688 42.0684 38.9571C42.0684 38.9571 42.1606 39.0277 42.3093 39.0808C42.471 39.0765 42.6142 38.8822 42.6597 38.6663C42.7911 38.4341 43.1287 36.5239 43.2089 36.2603C43.2632 36.474 43.6734 36.9049 43.8492 37.0243C44.0089 37.1197 44.1868 37.047 44.2921 36.8484C44.3289 36.6953 43.7385 35.7435 43.5985 35.1337ZM34.9305 40.8108C34.9305 40.8032 34.9652 40.3756 35.0097 39.8797L35.103 40.8075C35.1367 41.4554 35.0823 42.2661 35.0162 42.9901C34.9522 42.2661 34.8979 41.4554 34.9305 40.8108ZM35.1855 57.9614C35.2007 58.0233 35.1139 58.1915 35.027 58.3044C35.0238 58.3065 35.0204 58.3097 35.0152 58.3141C35.0118 58.3097 35.0086 58.3065 35.0063 58.3044C34.9185 58.1915 34.8328 58.0222 34.848 57.9614C35.0282 57.2473 34.8783 56.8458 34.8741 56.8348C34.7612 56.493 34.569 53.4869 34.7286 52.6924L34.7654 52.51C34.8707 51.9815 34.9684 51.5041 35.0152 50.9016C35.0651 51.5051 35.1605 51.9815 35.2681 52.51L35.3026 52.6924C35.4622 53.4869 35.2712 56.493 35.1605 56.8306C35.1552 56.8447 35.0053 57.2463 35.1855 57.9614Z" fill="white"/>
  <path d="M69.5 68.9613C59 65.9594 51.0493 51.8887 51.0493 34.9672C51.0493 18.0455 59 3.97601 69.5 0.97197V0.866699C55.8029 3.63959 45.3678 17.8436 45.3678 34.9672C45.3678 52.0885 55.8016 66.2925 69.4989 69.0654L69.5 68.9613Z" fill="white" id="circle-1"/>
  <path d="M0.5 0.970877C11 3.97601 18.9508 18.0455 18.9508 34.9662C18.9508 51.8887 10.999 65.9594 0.5 68.9613V69.0654C14.1973 66.2925 24.6311 52.0885 24.6311 34.9662C24.6311 17.8436 14.1973 3.63959 0.5 0.866699V0.970877Z" fill="white" id="circle-2"/>
</svg>